<?xml version="1.0" encoding="utf-8"?>
<!-- Generator: Adobe Illustrator 23.1.0, SVG Export Plug-In . SVG Version: 6.00 Build 0)  -->
<svg version="1.1" id="Layer_1" xmlns="http://www.w3.org/2000/svg" xmlns:xlink="http://www.w3.org/1999/xlink" x="0px" y="0px"
	 viewBox="0 0 140 92.6" enable-background="new 0 0 140 92.6" xml:space="preserve">
<g id="svg_format">
	<path fill="#8EAADB" d="M45,86.6c-7.2-3.1-13.9-8.3-20-15.6c-7-2.1-12.7-6.2-16.9-12.4C4,52.4,1.9,45.2,1.9,36.9
		c0-6.6,1.4-12.7,4.1-18S12.6,9.1,17.5,6s10.7-4.6,17.3-4.6C41.3,1.4,47.1,3,52.2,6c4.9,3.1,8.9,7.3,11.5,12.8
		c2.7,5.4,4.1,11.4,4.1,18c0,8.4-2.1,15.9-6.5,22.1S51.2,69.3,43.7,71.1c1.1,3.2,3.1,6.2,5.8,9c2.8,2.7,5.8,4.9,9.3,6.5
		c3.4,1.5,6.6,2.4,9.6,2.4v2.3C60.1,91.2,52.2,89.7,45,86.6z M50.6,59.8c3.8-5.6,5.6-13.2,5.6-23s-1.8-17.3-5.6-23
		c-3.8-5.6-9-8.3-15.8-8.3s-12,2.8-15.8,8.3c-3.8,5.6-5.6,13.2-5.6,23s1.8,17.3,5.6,23c3.8,5.6,9,8.3,15.8,8.3S46.8,65.5,50.6,59.8z
		"/>
	<path fill-rule="evenodd" clip-rule="evenodd" fill="#CC3399" d="M121.8,58.2c-1.1,18.9-21.4,17.2-21,3.2c0.8-8.6,1.5-20,2.4-29.3
		H92.6c-0.4,7-1.7,32-5.8,37.5c-3.7,5.1-15.2,2.3-7.6-8.2c6.9-9.4,7.9-18,8.7-29.3c-7.5,0-9.9,0.1-13.8,7h-1.8
		c3.1-10.7,6.3-14.2,17.3-14.2h32v7.3h-11.5c-0.3,4.4-2.8,27.6,0.4,30.6c3.9,3.7,8.7,0.8,9.6-4.6C120.1,58.2,121.8,58.2,121.8,58.2z
		"/>
	<path fill="#CC3399" d="M127.5,60.1h1.5l3.4,9.7l0.8,0.1v0.7h-3.7V70l1.1-0.1l-0.7-2.1H126l-0.7,2.1l1.3,0.1v0.7h-3.4V70l0.8-0.1
		L127.5,60.1z M128.4,62.4l-0.4-1.3l-0.3,1.3l-1.4,4.5h3.5L128.4,62.4z"/>
	<path fill="#CC3399" d="M135.3,61.1L134,61v-0.7h4.1v0.6l-1.3,0.1v8.7l1.3,0.1v0.8H134V70l1.3-0.1V61.1z"/>
</g>
</svg>
