<?xml version="1.0" encoding="utf-8"?>
<!-- Generator: Adobe Illustrator 23.1.0, SVG Export Plug-In . SVG Version: 6.00 Build 0)  -->
<svg version="1.1"
	 id="svg8" inkscape:version="0.92.1 r15371" sodipodi:docname="Azurey.svg" xmlns:cc="http://creativecommons.org/ns#" xmlns:dc="http://purl.org/dc/elements/1.1/" xmlns:inkscape="http://www.inkscape.org/namespaces/inkscape" xmlns:rdf="http://www.w3.org/1999/02/22-rdf-syntax-ns#" xmlns:sodipodi="http://sodipodi.sourceforge.net/DTD/sodipodi-0.dtd" xmlns:svg="http://www.w3.org/2000/svg"
	 xmlns="http://www.w3.org/2000/svg" xmlns:xlink="http://www.w3.org/1999/xlink" x="0px" y="0px" viewBox="0 0 100 100"
	 enable-background="new 0 0 100 100" xml:space="preserve">
<g>
	<path fill="#0089D6" d="M39.9,46.7C47.7,30,54.2,16,54.3,15.7c0.1-0.3,0.2-0.5,0.2-0.5c0,0-6,5-13.4,11.2L27.9,37.5L16.4,57.3
		C10.1,68.2,5,77.2,5,77.2c0,0,4.6,0,10.3,0l10.3,0L39.9,46.7z"/>
	<path fill="#0089D6" d="M76.2,52.2C65.3,33.3,57.6,20,57.6,20.1c-0.1,0.1-11.3,31.2-11.3,31.2c0,0,4.9,5.9,10.9,13l10.9,13l-0.2,0
		c-0.1,0-9.7,1.7-21.2,3.8l-21,3.7l69.4,0l-0.1-0.2C94.8,84.5,86.4,69.9,76.2,52.2z"/>
</g>
</svg>
