<?xml version="1.0" encoding="utf-8"?>
<!-- Generator: Adobe Illustrator 23.1.0, SVG Export Plug-In . SVG Version: 6.00 Build 0)  -->
<svg version="1.1" id="Layer_1" xmlns="http://www.w3.org/2000/svg" xmlns:xlink="http://www.w3.org/1999/xlink" x="0px" y="0px"
	 viewBox="0 0 40 40" style="enable-background:new 0 0 40 40;" xml:space="preserve">
<style type="text/css">
	.st0{fill:#FBC02D;}
	.st1{fill:#FFFFFF;}
</style>
<g transform="translate(0.047)">
	<circle class="st0" cx="20" cy="20" r="20"/>
	<path class="st1" d="M15.3,24.6c-0.8-0.4-1.8-0.5-2.9-0.2c-2,0.5-3.4,2.1-3,3.6c0.4,1.5,2.3,2.3,4.3,1.8c1.8-0.4,3-1.7,3.1-3h0
		v-9.4L27,15.1v7.7c-0.8-0.4-1.8-0.4-2.9-0.2c-2,0.5-3.4,2.1-3,3.6c0.4,1.5,2.3,2.3,4.3,1.8c1.6-0.4,2.8-1.5,3-2.7h0V10l-13.3,3.1
		L15.3,24.6L15.3,24.6z"/>
</g>
</svg>
