<?xml version="1.0" encoding="utf-8"?>
<!-- Generator: Adobe Illustrator 23.1.0, SVG Export Plug-In . SVG Version: 6.00 Build 0)  -->
<svg version="1.1" id="Layer_1" xmlns="http://www.w3.org/2000/svg" xmlns:xlink="http://www.w3.org/1999/xlink" x="0px" y="0px"
	 viewBox="0 0 24 24" enable-background="new 0 0 24 24" xml:space="preserve">
<path fill-rule="evenodd" clip-rule="evenodd" fill="#1F89DE" d="M23,19.9c0-0.2,0-0.3-0.1-0.4c0-0.1-0.1-0.2-0.1-0.2
	c0,0-0.1,0-0.2,0c-0.1,0-0.2,0-0.3,0.1c-0.1,0-0.3,0.1-0.4,0.1c-0.2,0-0.4,0.1-0.6,0.1c-0.2,0-0.4,0.1-0.7,0.1
	c-0.3,0-0.6-0.1-0.9-0.2c-0.3-0.1-0.5-0.4-0.8-0.8c-0.2-0.4-0.4-1-0.5-1.7c-0.1-0.7-0.2-1.7-0.2-2.9c0.3-0.6,0.5-1.3,0.8-2.1
	c0.2-0.8,0.5-1.5,0.7-2.3c0.2-0.8,0.4-1.6,0.6-2.3s0.3-1.5,0.5-2.1c0.1-0.6,0.2-1.2,0.3-1.7c0.1-0.5,0.1-0.8,0.1-1.1
	c0-0.1,0-0.2-0.1-0.3c-0.1-0.1-0.2-0.2-0.3-0.2c-0.1,0-0.3-0.1-0.5-0.1c-0.2,0-0.5,0-0.9,0c-0.2,0-0.5,0-0.6,0c-0.2,0-0.3,0-0.4,0.1
	c-0.1,0-0.2,0.1-0.2,0.1c-0.1,0-0.1,0.1-0.2,0.1c0,0.1-0.1,0.2-0.1,0.5c0,0.3-0.1,0.7-0.2,1.2c-0.1,0.5-0.2,1.1-0.3,1.9
	c-0.1,0.8-0.3,1.7-0.6,2.7c-0.1-1.1-0.4-2.1-0.8-3c-0.4-0.9-0.9-1.6-1.5-2.1c-0.6-0.6-1.3-1-2.1-1.3s-1.7-0.4-2.6-0.4
	C8.3,1.4,7,1.6,5.9,2.1C4.9,2.6,4,3.4,3.2,4.3C2.5,5.3,1.9,6.4,1.6,7.7C1.2,9.1,1,10.6,1,12.2c0,1.5,0.1,2.8,0.4,4.1
	c0.3,1.3,0.8,2.4,1.4,3.3c0.6,0.9,1.5,1.7,2.5,2.2c1,0.5,2.3,0.8,3.7,0.8c0.8,0,1.5-0.1,2.2-0.3c0.7-0.2,1.3-0.5,1.9-0.9
	c0.6-0.4,1.1-0.8,1.5-1.3c0.4-0.5,0.8-1.1,1.1-1.7c0.1,0.8,0.3,1.5,0.5,2.1c0.3,0.6,0.6,1,1,1.3c0.4,0.3,0.8,0.6,1.3,0.7
	c0.5,0.1,1,0.2,1.5,0.2c0.3,0,0.6,0,0.8,0c0.3,0,0.5-0.1,0.8-0.1c0.2,0,0.5-0.1,0.6-0.2c0.2-0.1,0.3-0.2,0.4-0.2
	c0.1-0.1,0.2-0.2,0.2-0.5c0-0.2,0.1-0.6,0.1-1C23,20.3,23,20.1,23,19.9z M14.3,15.1c-0.2,0.9-0.6,1.7-1,2.4s-1,1.2-1.6,1.6
	c-0.7,0.4-1.4,0.6-2.3,0.6c-0.9,0-1.7-0.2-2.3-0.7c-0.6-0.4-1.1-1-1.5-1.7c-0.4-0.7-0.6-1.5-0.8-2.5c-0.2-0.9-0.2-1.9-0.2-2.9
	c0-0.9,0.1-1.9,0.3-2.8c0.2-0.9,0.5-1.7,0.9-2.4C6.2,6,6.7,5.4,7.4,5C8,4.6,8.8,4.3,9.7,4.3c0.6,0,1.3,0.1,1.9,0.4
	c0.6,0.3,1.1,0.7,1.6,1.3c0.5,0.6,0.8,1.4,1.1,2.4c0.3,0.9,0.4,2.1,0.4,3.5l0,0.1C14.7,13.1,14.5,14.1,14.3,15.1z"/>
</svg>
