<?xml version="1.0" encoding="utf-8"?>
<!-- Generator: Adobe Illustrator 23.1.0, SVG Export Plug-In . SVG Version: 6.00 Build 0)  -->
<svg version="1.1" id="svg2" xmlns:svg="http://www.w3.org/2000/svg"
	 xmlns="http://www.w3.org/2000/svg" xmlns:xlink="http://www.w3.org/1999/xlink" x="0px" y="0px" viewBox="0 0 100 100"
	 style="enable-background:new 0 0 100 100;" xml:space="preserve">
<style type="text/css">
	.st0{fill-rule:evenodd;clip-rule:evenodd;fill:#17273D;}
</style>
<g>
	<path class="st0" d="M95,63.2L95,63.2c-0.1,0-0.1,0-0.2,0.1c0,0-0.1,0-0.2,0c-0.1,0-0.1,0-0.2,0c0,0-0.1,0-0.1,0c0,0,0,0,0,0v0V57
		c0,0,0,0,0,0l0,0c0,0,0.1,0,0.1,0c0,0,0.1,0,0.2,0c0.1,0,0.1,0,0.2,0c0,0,0.1,0,0.1,0c0,0,0,0,0,0v0V63.2C95,63.2,95,63.2,95,63.2z
		 M93,63.3c0,0-0.1,0-0.2,0c-0.1,0-0.2,0-0.2,0c0,0-0.1,0-0.1,0c0,0,0,0,0,0l0,0l-0.5-1.5H89l-0.5,1.5c0,0,0,0,0,0.1l0,0
		c0,0-0.1,0-0.1,0c0,0-0.1,0-0.2,0s-0.1,0-0.2,0c0,0-0.1,0-0.1,0c0,0,0,0,0-0.1s0-0.1,0-0.2l2.1-5.9c0,0,0,0,0-0.1c0,0,0,0,0.1,0
		c0,0,0.1,0,0.1,0c0,0,0.1,0,0.2,0c0.1,0,0.2,0,0.2,0c0,0,0.1,0,0.1,0c0,0,0.1,0,0.1,0s0,0,0,0.1l2.1,5.9
		C93.1,63.1,93.1,63.2,93,63.3C93.1,63.3,93.1,63.4,93,63.3C93.1,63.3,93,63.3,93,63.3z M90.3,57.7L90.3,57.7l-1.1,3.2h2.2
		L90.3,57.7z M88.6,74.8v-3.5c0,0,0-0.1,0-0.1s0,0,0.1-0.1c0,0,0.1,0,0.3,0c0.1,0,0.2,0,0.4,0c0.2,0,0.3,0,0.4,0s0.2,0,0.2,0
		c0,0,0.1,0,0.1,0.1c0,0,0,0.1,0,0.1v9.5c0,0,0,0.1,0,0.1c0,0,0,0-0.1,0.1c0,0-0.1,0-0.2,0s-0.2,0-0.3,0c-0.1,0-0.3,0-0.4,0
		s-0.1,0-0.2,0c0,0-0.1,0-0.1-0.1c0,0,0-0.1,0-0.1V80c-0.3,0.3-0.7,0.6-1,0.8c-0.3,0.2-0.7,0.3-1.2,0.3c-0.5,0-0.9-0.1-1.2-0.3
		c-0.3-0.2-0.6-0.4-0.8-0.7c-0.2-0.3-0.3-0.7-0.4-1.1c-0.1-0.4-0.1-0.9-0.1-1.3c0-0.5,0-1.1,0.2-1.5c0.1-0.4,0.3-0.8,0.5-1.1
		c0.2-0.3,0.5-0.5,0.9-0.7c0.3-0.1,0.7-0.2,1.2-0.2c0.3,0,0.7,0,1,0.2C88,74.3,88.3,74.5,88.6,74.8z M86.5,75.6
		c-0.1,0.1-0.3,0.3-0.4,0.4c-0.1,0.2-0.2,0.4-0.2,0.6c0,0.2-0.1,0.5-0.1,0.7s0,0.5,0,0.8c0,0.2,0.1,0.5,0.2,0.7
		c0.1,0.2,0.2,0.3,0.4,0.5c0.1,0.1,0.3,0.2,0.6,0.2c0.1,0,0.2,0,0.3,0c0.1,0,0.2-0.1,0.3-0.2c0.1-0.1,0.2-0.2,0.4-0.3
		c0.1-0.1,0.2-0.3,0.4-0.5v-2.1c-0.2-0.3-0.5-0.6-0.7-0.7c-0.2-0.1-0.5-0.2-0.7-0.2C86.8,75.5,86.6,75.5,86.5,75.6z M85.7,63.4
		c-0.1,0.1-0.3,0.2-0.5,0.3c-0.2,0.1-0.5,0.2-0.8,0.2c-0.3,0-0.7,0.1-1.1,0.2s-0.8,0.1-1.2,0.1c-0.8,0-1.7-0.1-2.4-0.2
		c-0.7-0.2-1.4-0.5-2-1.1c-0.6-0.5-1-1.3-1.4-2.4c-0.4-1-0.7-2.4-0.9-4.1c-0.2-1.7-0.3-3.8-0.2-6.2c0-2.4,0.2-5.4,0.4-8.9h-8.9
		c0,3,0,5.7-0.2,8c-0.2,2.3-0.4,4.4-0.7,6.2c-0.3,1.7-0.6,3.2-1,4.4c-0.3,1.2-0.6,2-0.8,2.3c-0.1,0.3-0.3,0.6-0.4,0.8
		c-0.1,0.2-0.2,0.3-0.3,0.4c-0.1,0.1-0.2,0.2-0.3,0.2c-0.1,0-0.3,0.1-0.4,0.1c-0.1,0-0.4,0-0.6,0s-0.5,0-0.9,0c-0.5,0-0.9,0-1.2,0
		c-0.3,0-0.5,0-0.7-0.1c-0.1,0-0.2-0.1-0.3-0.2c0-0.1-0.1-0.2-0.1-0.3c0-0.1,0-0.4,0.2-0.8c0.1-0.3,0.3-0.8,0.5-1.3
		c0.2-0.5,0.5-1.3,0.9-2.5c0.3-1.2,0.7-2.6,1-4.2s0.5-3.5,0.6-5.6c0.1-2.1,0.2-4.6,0.2-7.5H58c-0.3,0-0.5-0.1-0.7-0.5
		c-0.1-0.3-0.2-0.8-0.2-1.4c0-0.3,0-0.6,0-0.9s0.1-0.4,0.1-0.6s0.1-0.2,0.3-0.3c0.1,0,0.2-0.1,0.4-0.1h25.9c0.1,0,0.3,0,0.4,0.1
		c0.1,0,0.2,0.2,0.3,0.3c0.1,0.1,0.1,0.3,0.2,0.6s0,0.5,0,0.9c0,0.6-0.1,1.1-0.2,1.4c-0.2,0.3-0.4,0.5-0.7,0.5h-4.2
		c-0.1,3-0.2,5.5-0.2,7.6c0,2.1,0,3.8,0.1,5.2s0.2,2.5,0.4,3.3c0.2,0.8,0.4,1.4,0.7,1.8c0.2,0.4,0.5,0.7,0.8,0.8
		c0.3,0.1,0.6,0.1,0.9,0.1c0.5,0,1.1-0.1,1.7-0.2c0.6-0.1,1-0.2,1.1-0.2c0.1,0,0.2,0,0.2,0c0,0,0.1,0.1,0.1,0.2
		c0,0.1,0.1,0.3,0.1,0.5c0,0.2,0,0.4,0,0.8c0,0.5,0,1-0.1,1.3C85.9,63.1,85.8,63.3,85.7,63.4z M58.6,74.2c0.3,0.2,0.6,0.4,0.8,0.7
		c0.2,0.3,0.3,0.7,0.4,1.1c0.1,0.4,0.1,0.9,0.1,1.4c0,0.5,0,1.1-0.2,1.5c-0.1,0.4-0.3,0.8-0.5,1.2c-0.2,0.3-0.5,0.5-0.9,0.7
		c-0.3,0.1-0.7,0.2-1.2,0.2c-0.2,0-0.3,0-0.5,0c-0.1,0-0.3-0.1-0.4-0.1c-0.1,0-0.3-0.1-0.4-0.3c-0.1-0.1-0.3-0.2-0.4-0.4v3
		c0,0,0,0.1,0,0.1c0,0-0.1,0-0.1,0.1c0,0-0.1,0-0.3,0c-0.1,0-0.2,0-0.4,0s-0.3,0-0.4,0c-0.1,0-0.2,0-0.3,0c0,0-0.1,0-0.1-0.1
		c0,0,0-0.1,0-0.1v-9c0,0,0-0.1,0-0.1c0,0,0,0,0.1-0.1c0,0,0.1,0,0.2,0c0.1,0,0.2,0,0.3,0s0.2,0,0.3,0c0.1,0,0.2,0,0.2,0
		c0,0,0.1,0,0.1,0.1c0,0,0,0.1,0,0.1v0.7c0.2-0.2,0.3-0.3,0.5-0.5s0.3-0.2,0.5-0.3c0.2-0.1,0.4-0.1,0.6-0.2c0.2,0,0.4,0,0.6,0
		C57.9,73.9,58.3,74,58.6,74.2z M56.5,75.5c-0.1,0-0.2,0.1-0.3,0.2c-0.1,0.1-0.2,0.2-0.4,0.3c-0.1,0.1-0.2,0.3-0.4,0.5v2.1
		c0.2,0.3,0.5,0.5,0.7,0.7c0.2,0.2,0.4,0.2,0.7,0.2s0.4,0,0.6-0.2c0.1-0.1,0.3-0.3,0.4-0.4c0.1-0.2,0.2-0.4,0.2-0.6s0.1-0.5,0.1-0.7
		c0-0.3,0-0.5,0-0.8s-0.1-0.5-0.2-0.7s-0.2-0.3-0.4-0.4c-0.1-0.1-0.3-0.2-0.6-0.2C56.7,75.5,56.6,75.5,56.5,75.5z M53.9,63
		c-0.2,0.2-0.5,0.3-0.9,0.5c-0.4,0.1-0.9,0.3-1.4,0.4c-0.6,0.1-1.1,0.2-1.7,0.3c-0.6,0.1-1.2,0.1-1.8,0.1c-1.2,0-2.3-0.1-3.5-0.4
		c-1.1-0.3-2.1-0.8-3-1.5c-0.9-0.7-1.6-1.7-2.2-2.9c-0.6-1.2-1-2.7-1.2-4.6c-0.6,1.4-1.4,2.7-2.4,3.8c-0.9,1.1-2.1,2.2-3.4,3
		c-1.3,0.8-2.7,1.5-4.2,2c-1.5,0.4-3.2,0.7-5,0.7c-3.2,0-6-0.6-8.3-1.8s-4.2-2.8-5.6-5C7.7,55.5,6.7,53,6,50.1s-1-6-1-9.3
		c0-3.7,0.4-7.1,1.2-10.2S8.3,25.1,10,23c1.6-2.1,3.7-3.8,6.1-4.9c2.4-1.1,5.2-1.7,8.5-1.7c2.1,0,4,0.3,5.8,1
		c1.8,0.6,3.4,1.6,4.8,2.9c1.4,1.3,2.5,2.9,3.4,4.8c0.9,1.9,1.5,4.2,1.8,6.7c0.5-2.3,1-4.4,1.3-6.1c0.3-1.7,0.5-3.1,0.7-4.3
		c0.1-1.1,0.2-2,0.3-2.7c0.1-0.6,0.2-1,0.3-1.1c0.1,0,0.2-0.1,0.4-0.2c0,0,0.2-0.1,0.5-0.1s0.6-0.1,1-0.1c0.4,0,0.9,0,1.4,0
		c0.8,0,1.4,0,1.9,0c0.5,0,0.9,0.1,1.2,0.2c0.3,0.1,0.5,0.3,0.6,0.5c0.1,0.2,0.2,0.4,0.2,0.6c0,0.5-0.1,1.3-0.2,2.4
		c-0.1,1.1-0.4,2.4-0.7,3.8c-0.3,1.5-0.6,3.1-1,4.8c-0.4,1.7-0.8,3.5-1.3,5.3c-0.4,1.8-1,3.5-1.5,5.2s-1.1,3.3-1.7,4.7
		c0,2.7,0.2,5,0.5,6.6c0.3,1.7,0.7,3,1.2,3.9c0.5,0.9,1,1.5,1.7,1.8c0.6,0.3,1.2,0.4,1.9,0.4c0.6,0,1.1,0,1.6-0.1
		c0.5-0.1,0.9-0.2,1.3-0.3c0.3-0.1,0.7-0.2,0.9-0.3c0.3-0.1,0.5-0.1,0.7-0.1c0.1,0,0.3,0,0.4,0.1c0.1,0.1,0.2,0.2,0.2,0.4
		c0.1,0.2,0.1,0.5,0.1,0.9c0,0.4,0,0.9,0,1.6c0,1,0,1.7-0.1,2.2C54.3,62.5,54.1,62.9,53.9,63z M35.8,40.2c0-3-0.3-5.7-0.9-7.8
		c-0.6-2.2-1.4-3.9-2.5-5.3c-1-1.4-2.2-2.4-3.6-3s-2.7-0.9-4.2-0.9c-2,0-3.8,0.5-5.2,1.4c-1.4,1-2.6,2.2-3.5,3.9
		c-0.9,1.6-1.6,3.4-2,5.5c-0.4,2-0.6,4.1-0.6,6.3c0,2.3,0.1,4.5,0.5,6.6c0.3,2.1,0.9,4,1.7,5.6c0.8,1.6,1.9,2.9,3.3,3.9
		s3.1,1.5,5.3,1.5c1.9,0,3.6-0.4,5.1-1.3c1.5-0.9,2.7-2.1,3.7-3.7s1.7-3.4,2.2-5.5c0.5-2.1,0.8-4.4,0.8-6.9L35.8,40.2L35.8,40.2z
		 M17,72c0-0.1,0-0.1,0.1-0.2c0,0,0.1-0.1,0.2-0.1c0.1,0,0.2,0,0.3,0c0.1,0,0.3,0,0.6,0c0.3,0,0.5,0,0.7,0c0.1,0,0.3,0,0.4,0
		s0.1,0,0.2,0.1c0,0,0.1,0.1,0.1,0.2l2.9,8.3c0,0.1,0.1,0.3,0.1,0.4c0,0.1,0,0.2,0,0.2c0,0-0.1,0.1-0.3,0.1s-0.3,0-0.5,0
		s-0.4,0-0.6,0c-0.1,0-0.2,0-0.3,0c0,0-0.1,0-0.1-0.1c0,0,0-0.1,0-0.1L20,78.8h-3.5l-0.6,1.8c0,0,0,0.1-0.1,0.1c0,0-0.1,0.1-0.1,0.1
		c0,0-0.1,0-0.3,0s-0.3,0-0.5,0c-0.2,0-0.4,0-0.5,0c-0.1,0-0.2,0-0.2-0.1c0,0,0-0.1,0-0.2s0-0.2,0.1-0.4L17,72z M19.6,77.4l-1.3-4
		l0,0l-1.3,4H19.6z M24,71.7c0,0,0.1,0,0.3,0c0.1,0,0.2,0,0.4,0c0.2,0,0.3,0,0.4,0c0.1,0,0.2,0,0.3,0c0,0,0.1,0,0.1,0.1
		c0,0,0,0.1,0,0.1v8.8c0,0,0,0.1,0,0.1c0,0-0.1,0-0.1,0.1c0,0-0.1,0-0.3,0c-0.1,0-0.2,0-0.4,0c-0.2,0-0.3,0-0.4,0s-0.2,0-0.3,0
		c0,0-0.1,0-0.1-0.1c0,0,0-0.1,0-0.1V72c0,0,0-0.1,0-0.1C23.9,71.8,23.9,71.7,24,71.7z M30.6,79c0,0,0-0.1,0.1-0.1c0,0,0.1,0,0.1,0
		c0,0,0.1,0,0.3,0.1c0.1,0.1,0.3,0.1,0.4,0.2c0.2,0.1,0.4,0.2,0.7,0.2c0.2,0.1,0.6,0.1,0.9,0.1c0.2,0,0.4,0,0.6-0.1
		c0.2,0,0.3-0.1,0.4-0.2c0.1-0.1,0.2-0.2,0.3-0.4c0-0.1,0.1-0.3,0.1-0.5c0-0.2,0-0.4-0.1-0.5c-0.1-0.1-0.2-0.3-0.4-0.4
		s-0.4-0.2-0.6-0.3s-0.5-0.2-0.7-0.3c-0.2-0.1-0.5-0.2-0.7-0.4c-0.2-0.1-0.4-0.3-0.6-0.5c-0.2-0.2-0.3-0.4-0.4-0.7s-0.1-0.6-0.1-1
		c0-0.4,0.1-0.8,0.2-1.2s0.4-0.6,0.6-0.8c0.3-0.2,0.6-0.4,1-0.5c0.4-0.1,0.8-0.1,1.2-0.1c0.2,0,0.4,0,0.6,0s0.4,0.1,0.6,0.1
		c0.2,0,0.3,0.1,0.5,0.2c0.1,0,0.2,0.1,0.3,0.2c0,0,0.1,0.1,0.1,0.1c0,0,0,0.1,0,0.1s0,0.1,0,0.2c0,0.1,0,0.2,0,0.3
		c0,0.1,0,0.2,0,0.3s0,0.2,0,0.2c0,0,0,0.1,0,0.1c0,0,0,0-0.1,0c0,0-0.1,0-0.2-0.1c-0.1,0-0.2-0.1-0.4-0.2c-0.1-0.1-0.3-0.1-0.6-0.2
		c-0.2,0-0.4-0.1-0.7-0.1c-0.2,0-0.4,0-0.5,0.1s-0.3,0.1-0.4,0.2s-0.2,0.2-0.2,0.3c0,0.1-0.1,0.2-0.1,0.4c0,0.2,0,0.4,0.1,0.5
		c0.1,0.1,0.2,0.3,0.4,0.4c0.2,0.1,0.4,0.2,0.6,0.3c0.2,0.1,0.5,0.2,0.7,0.3c0.2,0.1,0.5,0.2,0.7,0.4c0.2,0.1,0.4,0.3,0.6,0.5
		c0.2,0.2,0.3,0.4,0.4,0.7c0.1,0.3,0.1,0.6,0.1,1c0,0.5-0.1,0.9-0.2,1.3c-0.2,0.3-0.4,0.7-0.7,0.9c-0.3,0.2-0.7,0.4-1.1,0.5
		c-0.4,0.1-0.8,0.2-1.3,0.2c-0.3,0-0.6,0-0.9-0.1c-0.3,0-0.5-0.1-0.7-0.2c-0.2,0-0.4-0.1-0.5-0.2c-0.1-0.1-0.2-0.1-0.3-0.2
		c0,0-0.1-0.1-0.1-0.2c0-0.1,0-0.3,0-0.5c0-0.1,0-0.3,0-0.4C30.5,79.2,30.6,79.1,30.6,79z M38.8,71.2c0.4,0,0.7,0,0.8,0.2
		c0.1,0.1,0.2,0.4,0.2,0.7s0,0.6-0.2,0.7c-0.1,0.1-0.4,0.2-0.8,0.2c-0.4,0-0.7,0-0.8-0.2s-0.2-0.4-0.2-0.7s0-0.6,0.2-0.7
		C38.2,71.3,38.4,71.2,38.8,71.2z M38.1,74.1c0,0,0.1,0,0.3,0c0.1,0,0.2,0,0.4,0c0.2,0,0.3,0,0.4,0c0.1,0,0.2,0,0.3,0
		c0,0,0.1,0,0.1,0.1c0,0,0,0.1,0,0.1v6.4c0,0,0,0.1,0,0.1c0,0-0.1,0-0.1,0.1c0,0-0.1,0-0.3,0c-0.1,0-0.2,0-0.4,0c-0.2,0-0.3,0-0.4,0
		c-0.1,0-0.2,0-0.3,0c0,0-0.1,0-0.1-0.1c0,0,0-0.1,0-0.1v-6.4c0,0,0-0.1,0-0.1C38,74.2,38.1,74.2,38.1,74.1z M41.7,74.1
		c0,0,0.1,0,0.2,0c0.1,0,0.2,0,0.3,0c0.1,0,0.3,0,0.4,0c0.1,0,0.2,0,0.2,0s0.1,0,0.1,0.1s0,0.1,0,0.1v0.7c0.3-0.4,0.7-0.7,1-0.8
		c0.3-0.2,0.7-0.3,1.1-0.3c0.2,0,0.5,0,0.7,0.1c0.2,0,0.4,0.1,0.5,0.2c0.1,0.1,0.3,0.2,0.4,0.3c0.1,0.1,0.2,0.3,0.3,0.5
		c0.2-0.2,0.4-0.4,0.5-0.5c0.2-0.1,0.3-0.2,0.5-0.3s0.3-0.1,0.5-0.2c0.2,0,0.3,0,0.5,0c0.4,0,0.8,0,1.1,0.2s0.5,0.3,0.7,0.6
		c0.2,0.2,0.3,0.5,0.4,0.8c0.1,0.3,0.1,0.7,0.1,1v4.1c0,0,0,0.1,0,0.1c0,0-0.1,0-0.1,0.1c0,0-0.1,0-0.2,0c-0.1,0-0.2,0-0.4,0
		c-0.2,0-0.3,0-0.4,0c-0.1,0-0.2,0-0.3,0c0,0-0.1,0-0.1-0.1c0,0,0-0.1,0-0.1V77c0-0.2,0-0.4,0-0.6c0-0.2-0.1-0.3-0.2-0.4
		c-0.1-0.1-0.2-0.2-0.3-0.3c-0.1,0-0.3-0.1-0.4-0.1c-0.2,0-0.4,0.1-0.6,0.2c-0.2,0.1-0.4,0.4-0.7,0.7v4.3c0,0,0,0.1,0,0.1
		c0,0-0.1,0-0.1,0.1c0,0-0.1,0-0.3,0c-0.1,0-0.2,0-0.4,0s-0.3,0-0.4,0s-0.2,0-0.3,0c0,0-0.1,0-0.1-0.1c0,0,0-0.1,0-0.1V77
		c0-0.2,0-0.4,0-0.6c0-0.2-0.1-0.3-0.2-0.4c-0.1-0.1-0.2-0.2-0.3-0.3c-0.1,0-0.3-0.1-0.4-0.1c-0.2,0-0.4,0.1-0.6,0.2
		c-0.2,0.1-0.4,0.4-0.7,0.7v4.3c0,0,0,0.1,0,0.1c0,0-0.1,0-0.1,0.1c0,0-0.1,0-0.3,0c-0.1,0-0.2,0-0.4,0s-0.3,0-0.4,0
		c-0.1,0-0.2,0-0.3,0c0,0-0.1,0-0.1-0.1c0,0,0-0.1,0-0.1v-6.4c0,0,0-0.1,0-0.1C41.6,74.2,41.7,74.1,41.7,74.1z M61.7,71
		c0,0,0.1,0,0.3,0c0.1,0,0.2,0,0.4,0s0.3,0,0.4,0c0.1,0,0.2,0,0.3,0c0,0,0.1,0,0.1,0.1c0,0,0,0.1,0,0.1v9.5c0,0,0,0.1,0,0.1
		c0,0-0.1,0-0.1,0.1c0,0-0.1,0-0.3,0c-0.1,0-0.2,0-0.4,0s-0.3,0-0.4,0c-0.1,0-0.2,0-0.3,0c0,0-0.1,0-0.1-0.1c0,0,0-0.1,0-0.1v-9.5
		c0,0,0-0.1,0-0.1C61.5,71.1,61.6,71.1,61.7,71z M66,71.2c0.4,0,0.7,0,0.8,0.2c0.1,0.1,0.2,0.4,0.2,0.7s0,0.6-0.2,0.7
		c-0.1,0.1-0.4,0.2-0.8,0.2c-0.4,0-0.7,0-0.8-0.2c-0.1-0.1-0.2-0.4-0.2-0.7s0-0.6,0.2-0.7C65.3,71.3,65.6,71.2,66,71.2z M65.2,74.1
		c0,0,0.1,0,0.3,0c0.1,0,0.2,0,0.4,0c0.2,0,0.3,0,0.4,0c0.1,0,0.2,0,0.3,0c0,0,0.1,0,0.1,0.1s0,0.1,0,0.1v6.4c0,0,0,0.1,0,0.1
		c0,0-0.1,0-0.1,0.1c0,0-0.1,0-0.3,0c-0.1,0-0.2,0-0.4,0c-0.2,0-0.3,0-0.4,0c-0.1,0-0.2,0-0.3,0c0,0-0.1,0-0.1-0.1s0-0.1,0-0.1v-6.4
		c0,0,0-0.1,0-0.1C65.1,74.2,65.2,74.2,65.2,74.1z M68,74.2C68,74.2,68.1,74.1,68,74.2c0.1-0.1,0.2-0.1,0.2-0.1h0.8v-0.5
		c0-0.4,0-0.8,0.1-1.1c0.1-0.3,0.2-0.6,0.4-0.8c0.2-0.2,0.4-0.4,0.7-0.5c0.3-0.1,0.6-0.1,1-0.1c0.1,0,0.2,0,0.3,0c0.1,0,0.2,0,0.3,0
		c0.1,0,0.2,0,0.2,0c0,0,0.1,0,0.1,0.1c0,0,0,0,0,0.1s0,0.1,0,0.1c0,0,0,0.1,0,0.2c0,0.1,0,0.2,0,0.3c0,0.2,0,0.4,0,0.5
		c0,0.1-0.1,0.1-0.1,0.1s0,0-0.1,0s-0.1,0-0.1,0s-0.1,0-0.2,0c0,0-0.1,0-0.2,0c-0.2,0-0.4,0.1-0.5,0.2c-0.1,0.1-0.1,0.4-0.1,0.8v0.6
		h3.6c0.2,0,0.3,0,0.4,0.1c0.1,0.1,0.1,0.2,0.1,0.4v6.2c0,0,0,0.1,0,0.1c0,0-0.1,0-0.1,0.1c0,0-0.1,0-0.3,0c-0.1,0-0.2,0-0.4,0
		c-0.2,0-0.3,0-0.4,0s-0.2,0-0.3,0c0,0-0.1,0-0.1-0.1c0,0,0-0.1,0-0.1v-5.2h-2.4v5.2c0,0,0,0.1,0,0.1c0,0-0.1,0-0.1,0.1
		c0,0-0.1,0-0.3,0c-0.1,0-0.2,0-0.4,0c-0.1,0-0.3,0-0.4,0c-0.1,0-0.2,0-0.3,0c0,0-0.1,0-0.1-0.1c0,0,0-0.1,0-0.1v-5.2h-0.8
		c-0.1,0-0.1,0-0.2-0.1c0-0.1,0-0.3,0-0.5c0-0.1,0-0.2,0-0.3C68,74.4,68,74.3,68,74.2z M74.6,73.1c-0.1,0-0.3,0-0.5,0
		c-0.2,0-0.3,0-0.5,0c-0.1,0-0.2-0.1-0.3-0.1c-0.1,0-0.1-0.1-0.1-0.3c0-0.1,0-0.2,0-0.4c0-0.1,0-0.3,0-0.4c0-0.1,0.1-0.2,0.1-0.3
		c0.1-0.1,0.2-0.1,0.3-0.1c0.1,0,0.3,0,0.5,0c0.2,0,0.3,0,0.5,0s0.2,0.1,0.3,0.1c0.1,0.1,0.1,0.2,0.1,0.3c0,0.1,0,0.2,0,0.4
		s0,0.3,0,0.4c0,0.1-0.1,0.2-0.1,0.3C74.9,73,74.8,73,74.6,73.1z M77.4,74.9c0.3-0.3,0.6-0.5,1-0.7c0.4-0.1,0.8-0.2,1.4-0.2
		c0.5,0,1,0.1,1.4,0.2c0.4,0.1,0.7,0.4,0.9,0.6c0.2,0.3,0.4,0.6,0.5,1c0.1,0.4,0.1,0.8,0.1,1.2v0.3c0,0.2,0,0.4-0.1,0.5
		c-0.1,0.1-0.2,0.1-0.4,0.1h-3.9c0,0.3,0,0.5,0.1,0.7s0.1,0.4,0.3,0.5c0.1,0.1,0.3,0.3,0.5,0.3c0.2,0.1,0.5,0.1,0.8,0.1s0.6,0,0.8,0
		c0.2,0,0.4-0.1,0.6-0.1c0.2,0,0.3-0.1,0.4-0.1c0.1,0,0.2,0,0.3,0c0,0,0.1,0,0.1,0c0,0,0,0,0,0.1c0,0,0,0.1,0,0.2c0,0.1,0,0.2,0,0.3
		c0,0.1,0,0.2,0,0.2s0,0.1,0,0.2s0,0.1,0,0.1c0,0,0,0-0.1,0.1s-0.1,0.1-0.2,0.1c-0.1,0-0.3,0.1-0.5,0.1c-0.2,0-0.4,0.1-0.7,0.1
		c-0.3,0-0.6,0-0.9,0c-0.5,0-1.1,0-1.5-0.2c-0.4-0.1-0.8-0.3-1.1-0.6c-0.3-0.3-0.5-0.6-0.6-1.1s-0.2-1-0.2-1.6c0-0.5,0-1.1,0.2-1.5
		C76.9,75.6,77.1,75.2,77.4,74.9z M81,76.8c0-0.5-0.1-0.9-0.3-1.2s-0.5-0.4-1-0.4c-0.2,0-0.4,0-0.6,0.1s-0.3,0.2-0.4,0.3
		c-0.1,0.1-0.2,0.3-0.2,0.5c0,0.2-0.1,0.4-0.1,0.6H81z"/>
</g>
</svg>
