<?xml version="1.0" encoding="utf-8"?>
<!-- Generator: Adobe Illustrator 23.1.0, SVG Export Plug-In . SVG Version: 6.00 Build 0)  -->
<svg version="1.1" id="Layer_1" xmlns="http://www.w3.org/2000/svg" xmlns:xlink="http://www.w3.org/1999/xlink" x="0px" y="0px"
	 viewBox="0 0 100 100" enable-background="new 0 0 100 100" xml:space="preserve">
<g>
	<path fill="#252F3E" d="M30.4,42.6c0,1.1,0.1,2,0.3,2.7c0.2,0.7,0.5,1.4,1,2.2c0.1,0.2,0.2,0.5,0.2,0.7c0,0.3-0.2,0.6-0.6,0.9
		l-1.9,1.3c-0.3,0.2-0.5,0.3-0.8,0.3c-0.3,0-0.6-0.1-0.9-0.4c-0.4-0.4-0.8-0.9-1.1-1.4c-0.3-0.5-0.6-1.1-0.9-1.8
		c-2.3,2.8-5.3,4.1-8.8,4.1c-2.5,0-4.5-0.7-6-2.2s-2.2-3.4-2.2-5.7c0-2.5,0.9-4.6,2.7-6.2s4.3-2.3,7.3-2.3c1,0,2.1,0.1,3.2,0.2
		s2.2,0.4,3.4,0.7v-2.2c0-2.3-0.5-3.9-1.4-4.8c-1-0.9-2.6-1.4-4.9-1.4c-1,0-2.1,0.1-3.2,0.4s-2.2,0.6-3.2,1c-0.5,0.2-0.8,0.3-1,0.4
		c-0.2,0.1-0.4,0.1-0.5,0.1c-0.4,0-0.6-0.3-0.6-0.9v-1.5c0-0.5,0.1-0.8,0.2-1c0.1-0.2,0.4-0.4,0.8-0.6c1-0.5,2.3-1,3.8-1.3
		c1.5-0.4,3-0.6,4.7-0.6c3.6,0,6.2,0.8,7.8,2.4c1.6,1.6,2.5,4.1,2.5,7.4L30.4,42.6L30.4,42.6z M18.2,47.2c1,0,2-0.2,3.1-0.5
		s2-1,2.8-1.9c0.5-0.6,0.8-1.2,1-1.9c0.2-0.7,0.3-1.6,0.3-2.6V39c-0.9-0.2-1.8-0.4-2.8-0.5c-1-0.1-1.9-0.2-2.8-0.2
		c-2,0-3.5,0.4-4.5,1.2c-1,0.8-1.5,1.9-1.5,3.4c0,1.4,0.4,2.5,1.1,3.2C15.8,46.8,16.8,47.2,18.2,47.2z M42.2,50.4
		c-0.5,0-0.9-0.1-1.1-0.3c-0.2-0.2-0.4-0.6-0.6-1.2l-7-23.1c-0.2-0.6-0.3-1-0.3-1.2c0-0.5,0.2-0.7,0.7-0.7h2.9c0.6,0,1,0.1,1.2,0.3
		c0.2,0.2,0.4,0.6,0.6,1.2l5,19.8l4.7-19.8c0.1-0.6,0.3-1,0.6-1.2c0.2-0.2,0.7-0.3,1.2-0.3h2.4c0.6,0,1,0.1,1.2,0.3
		c0.2,0.2,0.4,0.6,0.6,1.2l4.7,20.1l5.2-20.1c0.2-0.6,0.4-1,0.6-1.2c0.2-0.2,0.6-0.3,1.2-0.3h2.8c0.5,0,0.7,0.2,0.7,0.7
		c0,0.1,0,0.3-0.1,0.5c0,0.2-0.1,0.4-0.2,0.7L61.9,49c-0.2,0.6-0.4,1-0.6,1.2c-0.2,0.2-0.6,0.3-1.1,0.3h-2.6c-0.6,0-1-0.1-1.2-0.3
		S56,49.6,55.8,49l-4.6-19.3l-4.6,19.3c-0.1,0.6-0.3,1-0.6,1.2c-0.2,0.2-0.7,0.3-1.2,0.3H42.2z M80.7,51.2c-1.6,0-3.1-0.2-4.6-0.5
		s-2.7-0.7-3.4-1.2c-0.5-0.3-0.8-0.6-0.9-0.8s-0.2-0.6-0.2-0.8v-1.5c0-0.6,0.2-0.9,0.7-0.9c0.2,0,0.4,0,0.5,0.1
		c0.2,0.1,0.4,0.2,0.7,0.3c1,0.4,2.1,0.8,3.3,1c1.2,0.2,2.4,0.4,3.6,0.4c1.9,0,3.4-0.3,4.4-1s1.6-1.6,1.6-2.8c0-0.8-0.3-1.5-0.8-2.1
		s-1.6-1.1-3-1.6l-4.3-1.3c-2.2-0.7-3.8-1.7-4.8-3.1c-1-1.3-1.5-2.8-1.5-4.3c0-1.3,0.3-2.4,0.8-3.3c0.5-1,1.3-1.8,2.2-2.5
		c0.9-0.7,1.9-1.2,3.1-1.6c1.2-0.4,2.5-0.5,3.8-0.5c0.7,0,1.3,0,2,0.1c0.7,0.1,1.3,0.2,1.9,0.3c0.6,0.1,1.2,0.3,1.7,0.5
		c0.5,0.2,1,0.4,1.3,0.5c0.4,0.2,0.7,0.5,0.9,0.7c0.2,0.2,0.3,0.6,0.3,1v1.4c0,0.6-0.2,1-0.7,1c-0.2,0-0.6-0.1-1.1-0.4
		c-1.7-0.8-3.6-1.2-5.7-1.2c-1.7,0-3.1,0.3-4,0.8c-0.9,0.6-1.4,1.4-1.4,2.7c0,0.8,0.3,1.6,0.9,2.1c0.6,0.6,1.7,1.1,3.3,1.6l4.3,1.3
		c2.2,0.7,3.7,1.6,4.6,2.9c0.9,1.2,1.4,2.6,1.4,4.2c0,1.3-0.3,2.5-0.8,3.5c-0.5,1-1.3,1.9-2.2,2.6c-0.9,0.7-2,1.3-3.3,1.7
		C83.6,51,82.2,51.2,80.7,51.2z"/>
	<path fill-rule="evenodd" clip-rule="evenodd" fill="#FF9900" d="M86.4,65.8C76.5,73,62.2,76.9,49.9,76.9c-17.2,0-32.8-6.4-44.5-17
		c-0.9-0.8-0.1-2,1-1.3C19.1,66,34.8,70.4,51,70.4c10.9,0,22.9-2.3,34-6.9C86.6,62.8,88,64.6,86.4,65.8z"/>
	<path fill-rule="evenodd" clip-rule="evenodd" fill="#FF9900" d="M90.5,61.1c-1.3-1.6-8.3-0.8-11.5-0.4c-1,0.1-1.1-0.7-0.2-1.3
		c5.6-4,14.9-2.8,16-1.5c1.1,1.3-0.3,10.6-5.6,15c-0.8,0.7-1.6,0.3-1.2-0.6C89.1,69.4,91.7,62.7,90.5,61.1z"/>
</g>
</svg>
