<?xml version="1.0" encoding="utf-8"?>
<!-- Generator: Adobe Illustrator 23.1.0, SVG Export Plug-In . SVG Version: 6.00 Build 0)  -->
<svg version="1.1" id="Layer_1" xmlns="http://www.w3.org/2000/svg" xmlns:xlink="http://www.w3.org/1999/xlink" x="0px" y="0px"
	 viewBox="0 0 24 24" style="enable-background:new 0 0 24 24;" xml:space="preserve">
<style type="text/css">
	.st0{fill:#FFFFFF;}
</style>
<g id="ic_deploy-ai" transform="translate(-6.597)">
	<g id="Group_347" transform="translate(24.039 35.472)">
		<g id="Group_346" transform="translate(0 0)">
			<circle id="Ellipse_14" class="st0" cx="-5.4" cy="-13.7" r="1.2"/>
		</g>
	</g>
	<g id="Group_349" transform="translate(8.415 0)">
		<g id="Group_348" transform="translate(0 0)">
			<path id="Path_316" class="st0" d="M18.1,7.5l-0.3-0.1V7c0-0.2,0-0.5,0-0.7c0-2.9-2.4-5.3-5.3-5.3c-1,0-2,0.3-2.9,0.9
				C8.9,2.4,8.2,3.2,7.8,4.1L7.7,4.4H7.3C7,4.3,6.8,4.3,6.5,4.3C5.6,4.3,4.7,4.6,4,5.1S2.8,6.4,2.6,7.2L2.5,7.4L2.3,7.5
				C2,7.7,1.6,7.9,1.3,8.2C0,9.5,0,11.6,1.3,12.9c0.6,0.6,1.5,1,2.4,1h12.9c1.9,0,3.4-1.5,3.4-3.4C20,9.3,19.3,8.1,18.1,7.5z"/>
		</g>
	</g>
	<g id="Group_351" transform="translate(41.481 34.496)">
		<g id="Group_350">
			<circle id="Ellipse_15" class="st0" cx="-13.3" cy="-13.3" r="1.2"/>
		</g>
	</g>
	<g id="Group_353" transform="translate(6.597 34.496)">
		<g id="Group_352" transform="translate(0)">
			<circle id="Ellipse_16" class="st0" cx="2.4" cy="-13.3" r="1.2"/>
		</g>
	</g>
	<g id="Group_355" transform="translate(25.48 24.349)">
		<g id="Group_354">
			<rect id="Rectangle_84" x="-7.3" y="-10" class="st0" width="0.9" height="5.2"/>
		</g>
	</g>
	<g id="Group_357" transform="translate(33.713 24.349)">
		<g id="Group_356" transform="translate(0)">
			<path id="Path_317" class="st0" d="M-8.9-3.6c-0.7,0-1.2-0.6-1.2-1.3V-10H-11v5.1c0,1.2,1,2.2,2.2,2.2h1.1v-0.9H-8.9z"/>
		</g>
	</g>
	<g id="Group_359" transform="translate(12.924 24.349)">
		<g id="Group_358" transform="translate(0)">
			<path id="Path_318" class="st0" d="M0.7-10v5.1c0,0.7-0.6,1.3-1.2,1.3h-1.1v0.9h1.1c1.2,0,2.2-1,2.2-2.2V-10H0.7z"/>
		</g>
	</g>
</g>
</svg>
