<?xml version="1.0" encoding="utf-8"?>
<!-- Generator: Adobe Illustrator 22.0.1, SVG Export Plug-In . SVG Version: 6.00 Build 0)  -->
<svg version="1.1" id="Layer_1" xmlns="http://www.w3.org/2000/svg" xmlns:xlink="http://www.w3.org/1999/xlink" x="0px" y="0px"
	 viewBox="0 0 24 24" style="enable-background:new 0 0 24 24;" xml:space="preserve">
<style type="text/css">
	.st0{fill:#8EAADB;}
	.st1{fill:#CC3399;}
</style>
<path class="st0" d="M19.6,13.5c-2.2-1.6-6-2-6.4-2c-0.2,0-0.4-0.2-0.4-0.4l0,0c-0.2-2-0.6-6.6-0.6-6.6c0-0.3-0.2-0.5-0.5-0.4
	c-0.3,0-0.5,0.2-0.5,0.5v7.8v0.1v3.8c0,0.2-0.1,0.4-0.4,0.4c-0.2,0-0.4-0.2-0.4-0.4v-3.5c-0.3,0-0.5,0.1-0.8,0.3
	c-0.3,0.4-0.5,0.8-0.4,1.3c0,3.5,0.6,5,2.7,6.8c0.3,0.3,0.6,0.5,0.9,0.7c0.4,0.3,0.6,0.7,0.8,1.2H18c0-0.8,0.5-1.2,1-1.6
	c0.2-0.2,0.4-0.4,0.5-0.5c0.7-1,0.8-2.6,0.8-3.9v-0.5c0-0.4,0-1.1,0-1.6C20.3,14.3,20,13.9,19.6,13.5z M17.9,17.3h-0.7V18h0.7v0.7
	h-0.7v0.4c0,0.2-0.2,0.4-0.4,0.4h-0.4v0.7h-0.7v-0.7H15v0.7h-0.7v-0.7h-0.4c-0.2,0-0.4-0.2-0.4-0.4v-0.4h-0.7V18h0.7v-0.7h-0.7v-0.7
	h0.7v-0.4c0-0.2,0.2-0.4,0.4-0.4h0.4v-0.7H15v0.7h0.7v-0.7h0.7v0.7h0.4c0.2,0,0.4,0.2,0.4,0.4v0.4h0.7V17.3z"/>
<rect x="14.3" y="16.5" class="st0" width="2.2" height="2.2"/>
<path class="st1" d="M20.7,8c0-0.2,0.2-0.4,0.4-0.4h0.7c-0.2-0.8-0.7-1.4-1.5-1.5v0.7c0,0.2-0.2,0.4-0.4,0.4S19.5,7,19.5,6.8V6.1
	c-0.5,0.1-0.9,0.4-1.1,0.7l-3.7-1.7c0.1-0.2,0.1-0.4,0.2-0.6H14c-0.2,0-0.4-0.2-0.4-0.4c0-0.2,0.2-0.4,0.4-0.4h0.7
	C14.5,2.3,13.4,1.2,12,1v0.7c0,0.2-0.2,0.4-0.4,0.4s-0.4-0.2-0.4-0.4V1C9.8,1.2,8.7,2.3,8.5,3.7h0.7c0.2,0,0.4,0.2,0.4,0.4
	S9.4,4.5,9.2,4.5H8.5c0,0.2,0.1,0.5,0.2,0.7l-3,1.7C5.4,6.5,5,6.2,4.5,6.1v0.7c0,0.2-0.2,0.4-0.4,0.4C3.9,7.2,3.7,7,3.7,6.8V6.1
	C2.9,6.3,2.4,6.9,2.2,7.7h0.7c0.2,0,0.4,0.2,0.4,0.4S3.1,8.5,2.9,8.5H2.2C2.4,9.2,2.9,9.8,3.7,10V9.2c0-0.2,0.2-0.4,0.4-0.4
	S4.5,9,4.5,9.2V10C5.3,9.8,5.9,9.3,6,8.5H5.3C5.1,8.4,4.9,8.3,4.9,8c0-0.2,0.2-0.4,0.4-0.4H6V7.5l3-1.7c0.4,0.6,0.8,1,1.4,1.2V4.6
	c0-0.7,0.6-1.3,1.2-1.3c0.7,0,1.3,0.5,1.3,1.2c0,0,0.1,1,0.2,2.3c0.4-0.2,0.8-0.6,1-1l3.7,1.7v0.1h0.8C18.8,7.6,19,7.8,19,8
	c0,0.2-0.2,0.4-0.4,0.4h-0.7c0.2,0.8,0.7,1.4,1.5,1.5V9.2c0-0.2,0.2-0.4,0.4-0.4s0.4,0.2,0.4,0.4V10c0.8-0.2,1.4-0.7,1.5-1.5H21
	C20.8,8.4,20.7,8.3,20.7,8z"/>
</svg>
