<?xml version="1.0" encoding="utf-8"?>
<!-- Generator: Adobe Illustrator 22.0.1, SVG Export Plug-In . SVG Version: 6.00 Build 0)  -->
<svg version="1.1" id="Layer_1" xmlns="http://www.w3.org/2000/svg" xmlns:xlink="http://www.w3.org/1999/xlink" x="0px" y="0px"
	 viewBox="0 0 24 24" style="enable-background:new 0 0 24 24;" xml:space="preserve">
<style type="text/css">
	.st0{fill:#CC3399;}
	.st1{fill:#8EAADB;}
</style>
<g id="Group_347" transform="translate(24.039 35.472)">
	<g id="Group_346" transform="translate(0 0)">
		<circle id="Ellipse_14" class="st0" cx="-12" cy="-13.7" r="1.2"/>
	</g>
</g>
<g id="Group_349" transform="translate(8.415 0)">
	<g id="Group_348" transform="translate(0 0)">
		<path id="Path_316" class="st1" d="M11.5,7.5l-0.3-0.1V7c0-0.2,0-0.5,0-0.7C11.2,3.4,8.8,1,5.9,1c-1,0-2,0.3-2.9,0.9
			C2.3,2.4,1.6,3.2,1.2,4.1L1.1,4.4H0.7C0.4,4.3,0.2,4.3-0.1,4.3c-0.9,0-1.8,0.3-2.5,0.8S-3.8,6.4-4,7.2l-0.1,0.2l-0.2,0.1
			c-0.3,0.2-0.7,0.4-1,0.7c-1.3,1.3-1.3,3.4,0,4.7c0.6,0.6,1.5,1,2.4,1H10c1.9,0,3.4-1.5,3.4-3.4C13.4,9.3,12.7,8.1,11.5,7.5z"/>
	</g>
</g>
<g id="Group_351" transform="translate(41.481 34.496)">
	<g id="Group_350">
		<circle id="Ellipse_15" class="st0" cx="-19.9" cy="-13.3" r="1.2"/>
	</g>
</g>
<g id="Group_353" transform="translate(6.597 34.496)">
	<g id="Group_352" transform="translate(0)">
		<circle id="Ellipse_16" class="st0" cx="-4.2" cy="-13.3" r="1.2"/>
	</g>
</g>
<g id="Group_355" transform="translate(25.48 24.349)">
	<g id="Group_354">
		<rect id="Rectangle_84" x="-13.9" y="-10" class="st0" width="0.9" height="5.2"/>
	</g>
</g>
<g id="Group_357" transform="translate(33.713 24.349)">
	<g id="Group_356" transform="translate(0)">
		<path id="Path_317" class="st0" d="M-15.5-3.6c-0.7,0-1.2-0.6-1.2-1.3V-10h-0.9v5.1c0,1.2,1,2.2,2.2,2.2h1.1v-0.9H-15.5z"/>
	</g>
</g>
<g id="Group_359" transform="translate(12.924 24.349)">
	<g id="Group_358" transform="translate(0)">
		<path id="Path_318" class="st0" d="M-5.9-10v5.1c0,0.7-0.6,1.3-1.2,1.3h-1.1v0.9h1.1c1.2,0,2.2-1,2.2-2.2V-10H-5.9z"/>
	</g>
</g>
</svg>
