<?xml version="1.0" encoding="utf-8"?>
<!-- Generator: Adobe Illustrator 23.1.0, SVG Export Plug-In . SVG Version: 6.00 Build 0)  -->
<svg version="1.1" id="svg2" xmlns:svg="http://www.w3.org/2000/svg"
	 xmlns="http://www.w3.org/2000/svg" xmlns:xlink="http://www.w3.org/1999/xlink" x="0px" y="0px" viewBox="0 0 100 100"
	 enable-background="new 0 0 100 100" xml:space="preserve">
<path fill="#0078D7" d="M34.3,58.4c0,2.2,0.3,4.1,1,5.9c0.7,1.7,1.6,3.3,2.8,4.7c1.2,1.4,2.5,2.5,4.1,3.5c1.5,1,3.2,1.8,5,2.4
	c1.8,0.6,3.7,1.1,5.6,1.4c1.9,0.3,3.8,0.5,5.7,0.5c2.4,0,4.6-0.2,6.7-0.6c2.1-0.4,4.2-0.9,6.2-1.6c2-0.7,4-1.4,5.9-2.3
	c2-0.9,4-1.9,6-3v19.1c-2.3,1.1-4.5,2.1-6.8,2.9c-2.2,0.8-4.5,1.5-6.8,2c-2.3,0.6-4.6,1-7,1.2C60.4,94.9,58,95,55.5,95
	c-3.4,0-6.6-0.4-9.8-1.2c-3.1-0.8-6.1-1.9-8.8-3.3c-2.8-1.5-5.3-3.2-7.6-5.3c-2.3-2.1-4.3-4.4-5.9-7c-1.6-2.6-2.9-5.5-3.8-8.5
	c-0.9-3.1-1.3-6.3-1.3-9.8c0-3.7,0.5-7.2,1.5-10.6c1-3.4,2.5-6.4,4.4-9.3c1.9-2.8,4.2-5.3,7-7.5s5.8-4,9.3-5.3
	C38.5,29,37,31.2,36,33.8c-1.1,2.6-1.7,5.1-2,7.7h32c0-3.2-0.3-6-1-8.5c-0.7-2.4-1.7-4.4-3.2-6c-1.5-1.6-3.3-2.8-5.7-3.6
	c-2.3-0.8-5.1-1.2-8.4-1.2c-3.9,0-7.7,0.6-11.6,1.7c-3.9,1.1-7.5,2.7-11,4.8c-3.5,2.1-6.7,4.5-9.6,7.3c-2.9,2.8-5.4,5.8-7.4,9.1
	c0.4-3.8,1.3-7.5,2.4-10.9s2.7-6.7,4.6-9.7c1.9-3,4-5.7,6.5-8.1s5.2-4.5,8.3-6.2s6.3-3.1,9.8-4C43.3,5.5,47,5,51,5
	c2.3,0,4.6,0.2,6.9,0.6c2.3,0.4,4.5,1,6.7,1.7c4.3,1.5,8.2,3.6,11.6,6.2c3.4,2.7,6.3,5.7,8.6,9.2c2.3,3.5,4.1,7.3,5.3,11.5
	c1.2,4.2,1.8,8.5,1.8,13v11.2C91.9,58.4,34.3,58.4,34.3,58.4z"/>
</svg>
