<?xml version="1.0" encoding="utf-8"?>
<!-- Generator: Adobe Illustrator 22.0.1, SVG Export Plug-In . SVG Version: 6.00 Build 0)  -->
<svg version="1.1" id="Icon-fileupload" xmlns="http://www.w3.org/2000/svg" xmlns:xlink="http://www.w3.org/1999/xlink" x="0px"
	 y="0px" viewBox="0 0 24 24" style="enable-background:new 0 0 24 24;" xml:space="preserve">
<style type="text/css">
	.st0{fill:#8EAADB;}
	.st1{fill:#CC3399;}
</style>
<path class="st0" d="M20.5,13.2v6.1c0,0.6-0.5,1.2-1.2,1.2l0,0H4.7c-0.6,0-1.2-0.5-1.2-1.2v-6.1C3.5,12.6,3,12,2.3,12S1,12.6,1,13.2
	l0,0v7.3C1,21.9,2.1,23,3.5,23h17.1c1.4,0,2.5-1.1,2.5-2.5v-7.3c0-0.6-0.5-1.2-1.2-1.2S20.5,12.6,20.5,13.2L20.5,13.2z"/>
<path class="st1" d="M13.2,15.8c0,0.6-0.5,1.2-1.2,1.2c-0.6,0-1.2-0.5-1.2-1.2V5.2L8.4,7.5C8,7.9,7.2,7.9,6.7,7.5
	C6.2,7,6.2,6.3,6.7,5.7l4.4-4.4c0.5-0.5,1.2-0.5,1.7,0l4.4,4.4c0.5,0.5,0.5,1.3-0.1,1.7c-0.5,0.5-1.2,0.5-1.7,0l-2.3-2.3L13.2,15.8
	L13.2,15.8z"/>
</svg>
