<?xml version="1.0" encoding="utf-8"?>
<!-- Generator: Adobe Illustrator 23.1.0, SVG Export Plug-In . SVG Version: 6.00 Build 0)  -->
<svg version="1.1" id="Layer_1" xmlns="http://www.w3.org/2000/svg" xmlns:xlink="http://www.w3.org/1999/xlink" x="0px" y="0px"
	 viewBox="0 0 24 24" style="enable-background:new 0 0 24 24;" xml:space="preserve">
<style type="text/css">
	.st0{fill:#1F89DE;}
</style>
<path class="st0" d="M22.7,7.2L12.4,1.8c-0.2-0.1-0.6-0.1-0.8,0L1.3,7.2C1,7.3,0.9,7.6,1.1,7.8l0.4,0.8c0.1,0.2,0.4,0.4,0.7,0.4
	h19.7c0.3,0,0.6-0.2,0.7-0.4L23,7.8C23.1,7.6,23,7.3,22.7,7.2z M12.6,7.5c-0.1,0-0.3,0.1-0.3,0.3c0,0.1-0.1,0.2-0.2,0.2
	c-0.1,0-0.2-0.1-0.2-0.2c0-0.1-0.1-0.2-0.3-0.2c-0.5-0.1-0.8-0.3-0.9-0.8c0-0.1,0.1-0.3,0.2-0.3h0.4c0.1,0,0.3,0.1,0.3,0.3
	C11.7,6.9,11.9,7,12.1,7c0.2,0,0.5-0.1,0.5-0.4c0-0.2-0.1-0.3-0.2-0.3s-0.3-0.1-0.6-0.2C11.4,6,11.2,5.9,11,5.7
	c-0.2-0.1-0.3-0.3-0.3-0.6c0-0.6,0.3-0.9,0.9-1c0.1,0,0.3-0.1,0.3-0.3c0-0.1,0.1-0.2,0.2-0.2c0.1,0,0.2,0.1,0.2,0.2
	c0,0.1,0.1,0.2,0.3,0.2c0.4,0.1,0.7,0.3,0.8,0.7c0,0.1-0.1,0.3-0.2,0.3h-0.4c-0.1,0-0.3-0.1-0.3-0.3c-0.1-0.1-0.2-0.2-0.4-0.2
	c-0.2,0-0.4,0.1-0.4,0.4c0,0.3,0.6,0.4,0.9,0.5c0.5,0.2,1,0.3,1,1C13.5,7.1,13.1,7.4,12.6,7.5z M3.4,19c-0.4,0-0.7,0.3-0.7,0.7
	c0,0.4,0.3,0.7,0.7,0.7h17.1c0.4,0,0.7-0.3,0.7-0.7c0-0.4-0.3-0.7-0.7-0.7H20l-0.5-7.8c0-0.3,0.2-0.5,0.4-0.5c0.2,0,0.4-0.2,0.4-0.4
	c0-0.2-0.2-0.4-0.5-0.4h-3c-0.3,0-0.5,0.2-0.5,0.4s0.2,0.4,0.4,0.4c0.2,0,0.4,0.2,0.4,0.5L16.7,19h-3.1l-0.5-7.8
	c0-0.3,0.2-0.5,0.4-0.5s0.4-0.2,0.4-0.4c0-0.2-0.2-0.4-0.5-0.4h-3c-0.3,0-0.5,0.2-0.5,0.4s0.2,0.4,0.4,0.4c0.2,0,0.4,0.2,0.4,0.5
	L10.4,19H7.3l-0.5-7.8c0-0.3,0.2-0.5,0.4-0.5c0.2,0,0.4-0.2,0.4-0.4c0-0.2-0.2-0.4-0.5-0.4h-3c-0.3,0-0.5,0.2-0.5,0.4
	s0.2,0.4,0.4,0.4s0.4,0.2,0.4,0.5L4,19H3.4z M21.9,20.9H2.1c-0.4,0-0.7,0.3-0.7,0.7c0,0.4,0.3,0.7,0.7,0.7h19.7
	c0.4,0,0.7-0.3,0.7-0.7C22.5,21.2,22.2,20.9,21.9,20.9z"/>
</svg>
