<?xml version="1.0" encoding="utf-8"?>
<!-- Generator: Adobe Illustrator 23.1.0, SVG Export Plug-In . SVG Version: 6.00 Build 0)  -->
<svg version="1.1" id="svg2" xmlns:svg="http://www.w3.org/2000/svg"
	 xmlns="http://www.w3.org/2000/svg" xmlns:xlink="http://www.w3.org/1999/xlink" x="0px" y="0px" viewBox="0 0 100 100"
	 enable-background="new 0 0 100 100" xml:space="preserve">
<g>
	<path fill="#EA4335" d="M62.1,33.7h2.7l7.8-7.8l0.4-3.3C58.5,9.7,36.3,11.1,23.4,25.7c-3.6,4-6.2,8.9-7.6,14.1
		c0.9-0.4,1.8-0.4,2.7-0.2L34.2,37c0,0,0.8-1.3,1.2-1.2C42.4,28.1,54.1,27.2,62.1,33.7L62.1,33.7z"/>
	<path fill="#4285F4" d="M83.8,39.7c-1.8-6.6-5.5-12.6-10.6-17.1l-11,11c4.6,3.8,7.3,9.5,7.2,15.5V51c5.4,0,9.8,4.4,9.8,9.8
		c0,5.4-4.4,9.8-9.8,9.8H49.8l-1.9,2v11.7l1.9,1.9h19.5C83.4,86.3,94.9,75,95,61C95.1,52.5,90.9,44.5,83.8,39.7z"/>
	<path fill="#34A853" d="M30.3,86.1h19.5V70.5H30.3c-1.4,0-2.8-0.3-4-0.9l-2.7,0.9l-7.9,7.8L14.9,81C19.3,84.3,24.7,86.1,30.3,86.1z
		"/>
	<path fill="#FBBC05" d="M30.3,35.3C16.2,35.4,4.9,46.9,5,60.9c0,7.8,3.7,15.2,9.9,20l11.3-11.3c-4.9-2.2-7.1-8-4.9-12.9
		c2.2-4.9,8-7.1,12.9-4.9c2.2,1,3.9,2.7,4.9,4.9l11.3-11.3C45.7,39,38.2,35.3,30.3,35.3z"/>
</g>
</svg>
