<?xml version="1.0" encoding="utf-8"?>
<!-- Generator: Adobe Illustrator 23.1.0, SVG Export Plug-In . SVG Version: 6.00 Build 0)  -->
<svg version="1.1" id="ic_genearate-ai" xmlns="http://www.w3.org/2000/svg" xmlns:xlink="http://www.w3.org/1999/xlink" x="0px"
	 y="0px" viewBox="0 0 24 24" style="enable-background:new 0 0 24 24;" xml:space="preserve">
<style type="text/css">
	.st0{fill:#FFFFFF;}
</style>
<g>
	<path id="Path_334" class="st0" d="M17.1,5.2H7C6,5.2,5.1,6,5.1,7l0,0v10.1c0,1,0.8,1.8,1.8,1.8l0,0H17c1,0,1.8-0.8,1.8-1.8l0,0V7
		C18.9,6,18.1,5.2,17.1,5.2L17.1,5.2z M17.4,16.1c0,0.7-0.6,1.3-1.3,1.3l0,0H8c-0.7,0-1.3-0.6-1.3-1.3l0,0V8c0-0.7,0.6-1.3,1.3-1.3
		l0,0h8.1c0.7,0,1.3,0.6,1.3,1.3l0,0V16.1z"/>
	<path id="Union_1" class="st0" d="M8.4,16.2c-0.3,0-0.6-0.3-0.6-0.6l0,0V8.4c0-0.3,0.3-0.6,0.6-0.6l0,0h7.1c0.3,0,0.6,0.3,0.6,0.6
		l0,0v7.1c0,0.3-0.3,0.6-0.6,0.6l0,0H8.4V16.2z"/>
	<path id="Path_337" class="st0" d="M13.1,19.9c-0.2,0-0.3,0.1-0.3,0.3v2.5c0,0.2,0.2,0.3,0.3,0.3c0.2,0,0.3-0.1,0.3-0.3v-2.5
		C13.4,20,13.3,19.9,13.1,19.9L13.1,19.9z"/>
	<path id="Path_338" class="st0" d="M10.9,19.9c-0.2,0-0.3,0.1-0.3,0.3v2.5c0,0.2,0.2,0.3,0.3,0.3c0.2,0,0.3-0.1,0.3-0.3v-2.5
		C11.2,20,11.1,19.9,10.9,19.9L10.9,19.9z"/>
	<path id="Path_339" class="st0" d="M8.7,19.9c-0.2,0-0.3,0.1-0.3,0.3v2.5c0,0.2,0.2,0.3,0.3,0.3C8.9,23,9,22.9,9,22.7v-2.5
		C9,20,8.9,19.9,8.7,19.9L8.7,19.9z"/>
	<path id="Path_340" class="st0" d="M15.3,19.9c-0.2,0-0.3,0.1-0.3,0.3v2.5c0,0.2,0.2,0.3,0.3,0.3c0.2,0,0.3-0.1,0.3-0.3v-2.5
		C15.6,20,15.5,19.9,15.3,19.9L15.3,19.9z"/>
	<path id="Path_341" class="st0" d="M10.6,1.3v2.5c0,0.2,0.1,0.3,0.3,0.3s0.3-0.1,0.3-0.3l0,0V1.3c0-0.2-0.1-0.3-0.3-0.3
		C10.8,1,10.6,1.1,10.6,1.3L10.6,1.3z"/>
	<path id="Path_342" class="st0" d="M12.8,1.3v2.5c0,0.2,0.2,0.3,0.3,0.3c0.2,0,0.3-0.1,0.3-0.3V1.3c0-0.2-0.2-0.3-0.3-0.3
		C13,1,12.8,1.2,12.8,1.3z"/>
	<path id="Path_343" class="st0" d="M15.3,4.1c0.2,0,0.3-0.1,0.3-0.3V1.3c0-0.2-0.1-0.3-0.3-0.3C15.2,1,15,1.1,15,1.3l0,0v2.5
		C15,4,15.1,4.1,15.3,4.1z"/>
	<path id="Path_344" class="st0" d="M8.4,1.3v2.5c0,0.2,0.2,0.3,0.3,0.3C8.9,4.1,9,4,9,3.8V1.3C9,1.2,8.9,1,8.7,1
		C8.6,1,8.4,1.2,8.4,1.3z"/>
	<path id="Path_345" class="st0" d="M22.7,10.6h-2.5c-0.2,0-0.3,0.2-0.3,0.3c0,0.2,0.1,0.3,0.3,0.3h2.5c0.2,0,0.3-0.2,0.3-0.3
		C23,10.7,22.9,10.6,22.7,10.6L22.7,10.6z"/>
	<path id="Path_346" class="st0" d="M22.7,12.8h-2.5c-0.2,0-0.3,0.2-0.3,0.3c0,0.2,0.1,0.3,0.3,0.3h2.5c0.2,0,0.3-0.2,0.3-0.3
		S22.9,12.8,22.7,12.8L22.7,12.8z"/>
	<path id="Path_347" class="st0" d="M22.7,15h-2.5c-0.2,0-0.3,0.2-0.3,0.3c0,0.2,0.1,0.3,0.3,0.3h2.5c0.2,0,0.3-0.2,0.3-0.3
		C23,15.1,22.9,15,22.7,15L22.7,15z"/>
	<path id="Path_348" class="st0" d="M22.7,8.4h-2.5c-0.2,0-0.3,0.2-0.3,0.3C19.9,8.9,20,9,20.2,9h2.5C22.9,9,23,8.9,23,8.7
		C23,8.6,22.9,8.4,22.7,8.4L22.7,8.4z"/>
	<path id="Path_349" class="st0" d="M3.8,12.8H1.3C1.2,12.8,1,13,1,13.1c0,0.2,0.1,0.3,0.3,0.3h2.5c0.2,0,0.3-0.2,0.3-0.3
		S4,12.8,3.8,12.8z"/>
	<path id="Path_350" class="st0" d="M3.8,10.6H1.3c-0.2,0-0.3,0.1-0.3,0.3s0.1,0.3,0.3,0.3l0,0h2.5c0.2,0,0.3-0.1,0.3-0.3
		C4.2,10.8,4,10.6,3.8,10.6C3.9,10.6,3.9,10.6,3.8,10.6z"/>
	<path id="Path_351" class="st0" d="M3.8,8.4H1.3C1.2,8.4,1,8.6,1,8.8C1,8.9,1.2,9,1.3,9h2.5C4,9,4.1,8.9,4.1,8.7
		C4.1,8.6,4,8.4,3.8,8.4z"/>
	<path id="Path_352" class="st0" d="M3.8,15H1.3C1.2,15,1,15.1,1,15.3s0.1,0.3,0.3,0.3l0,0h2.5c0.2,0,0.3-0.1,0.3-0.3
		C4.2,15.2,4,15,3.8,15C3.9,15,3.9,15,3.8,15z"/>
</g>
</svg>
