<?xml version="1.0" encoding="utf-8"?>
<!-- Generator: Adobe Illustrator 23.1.0, SVG Export Plug-In . SVG Version: 6.00 Build 0)  -->
<svg version="1.1" id="ic_history" xmlns="http://www.w3.org/2000/svg" xmlns:xlink="http://www.w3.org/1999/xlink" x="0px" y="0px"
	 viewBox="0 0 24 24" style="enable-background:new 0 0 24 24;" xml:space="preserve">
<style type="text/css">
	.st0{fill:#FFFFFF;}
</style>
<path id="Path_320" class="st0" d="M13.6,2.6c-5.2,0-9.4,4.2-9.4,9.4H1l4.1,4.1l0.1,0.1L9.4,12H6.2c0-4.1,3.3-7.4,7.3-7.4
	c4.1,0,7.4,3.3,7.4,7.3c0,4.1-3.3,7.4-7.3,7.4c-2,0-3.9-0.8-5.2-2.2l-1.5,1.5c3.7,3.7,9.6,3.7,13.3,0s3.7-9.6,0-13.3
	C18.5,3.6,16.1,2.6,13.6,2.6z M12.5,7.8V13l4.5,2.7l0.8-1.3l-3.7-2.2V7.8H12.5z"/>
</svg>
