<?xml version="1.0" encoding="utf-8"?>
<!-- Generator: Adobe Illustrator 23.1.0, SVG Export Plug-In . SVG Version: 6.00 Build 0)  -->
<svg version="1.1" id="Layer_1" xmlns="http://www.w3.org/2000/svg" xmlns:xlink="http://www.w3.org/1999/xlink" x="0px" y="0px"
	 viewBox="0 0 24 24" enable-background="new 0 0 24 24" xml:space="preserve">
<g>
	<path fill="#1F89DE" d="M20.6,21.4h-0.8V5.7c0-0.4-0.4-0.8-0.8-0.8h-3.1C15.9,2.8,14.2,1,12,1S8.1,2.8,8.1,4.9H4.9
		c-0.4,0-0.8,0.4-0.8,0.8v15.7H3.4c-0.4,0-0.8,0.4-0.8,0.8c0,0.4,0.4,0.8,0.8,0.8h17.3c0.4,0,0.8-0.4,0.8-0.8
		C21.4,21.8,21.1,21.4,20.6,21.4z M8.9,15.1H6.5v-2.4h2.4V15.1z M8.9,11.2H6.5V8.9h2.4V11.2z M12,1.8c1.7,0,3.1,1.4,3.1,3.1
		S13.7,8.1,12,8.1S8.9,6.7,8.9,4.9S10.3,1.8,12,1.8z M10.8,11.2V8.9h2.4v2.4H10.8z M13.2,12.8v2.4h-2.4v-2.4H13.2z M14.4,21.4H9.6
		v-4.7h4.7V21.4z M17.5,15.1h-2.4v-2.4h2.4V15.1z M17.5,11.2h-2.4V8.9h2.4V11.2z"/>
	<polygon fill="#1F89DE" points="11.4,6.9 12.6,6.9 12.6,5.5 14,5.5 14,4.3 12.6,4.3 12.6,3 11.4,3 11.4,4.3 10,4.3 10,5.5 
		11.4,5.5 	"/>
</g>
</svg>
