<?xml version="1.0" encoding="utf-8"?>
<!-- Generator: Adobe Illustrator 23.1.0, SVG Export Plug-In . SVG Version: 6.00 Build 0)  -->
<svg version="1.1" id="Layer_1" xmlns="http://www.w3.org/2000/svg" xmlns:xlink="http://www.w3.org/1999/xlink" x="0px" y="0px"
	 viewBox="0 0 24 24" style="enable-background:new 0 0 24 24;" xml:space="preserve">
<style type="text/css">
	.st0{fill:#3A4455;}
</style>
<g>
	<path class="st0" d="M12,11.1c0.3-0.2,0.5-0.3,0.7-0.5c2.8-2.1,3.5-4,3.7-5.2c0-0.2-0.2-0.3-0.3-0.2c-1.2,0.5-3.4,1.3-4.7,0.7
		c-1.3-0.6-2.9-0.4-3.7-0.2C7.7,5.7,7.6,5.8,7.7,6c0.3,1.2,1.2,2.9,3.6,4.7C11.4,10.8,11.7,10.9,12,11.1L12,11.1z"/>
	<circle class="st0" cx="12" cy="12.9" r="0.6"/>
	<circle class="st0" cx="12" cy="15.9" r="1"/>
	<path class="st0" d="M18.4,20.3c0.3-1.6,0.3-4.8-4.1-8.4c4.8-3.9,4.4-7.4,4-8.8c0.8-0.2,1.3-0.5,1.3-0.8C19.5,1.6,16.2,1,12,1
		S4.5,1.6,4.5,2.4c0,0.3,0.5,0.5,1.3,0.8c-0.4,1.4-0.8,4.9,4,8.8c-4.4,3.6-4.4,6.8-4.1,8.4c-0.7,0.2-1.2,0.5-1.2,0.7v0.6
		c0,0.8,3.4,1.4,7.5,1.4s7.5-0.6,7.5-1.4V21C19.5,20.7,19.1,20.5,18.4,20.3z M11.1,12.5c0.2-0.1,0.3-0.3,0.3-0.6
		c0-0.2-0.1-0.4-0.3-0.6C6.2,7.7,6.7,4.5,7,3.5h0.6c1.2,0.2,2.8,0.3,4.4,0.3s3.2-0.1,4.4-0.3H17c0.3,1,0.7,4.2-4.1,7.9
		c-0.2,0.1-0.3,0.3-0.3,0.6s0.1,0.4,0.3,0.6c4.4,3.3,4.5,6.2,4.2,7.5c-0.3-0.1-0.7-0.1-1.1-0.1c-0.3-0.4-1.2-1-3.3-2.3
		c-0.2-0.1-1.3-0.1-1.6,0c-2,1.2-2.9,1.8-3.3,2.2c-0.4,0-0.7,0.1-1.1,0.1C6.6,18.7,6.7,15.8,11.1,12.5z"/>
</g>
</svg>
