<?xml version="1.0" encoding="utf-8"?>
<!-- Generator: Adobe Illustrator 23.1.0, SVG Export Plug-In . SVG Version: 6.00 Build 0)  -->
<svg version="1.1" id="svg2" xmlns:svg="http://www.w3.org/2000/svg"
	 xmlns="http://www.w3.org/2000/svg" xmlns:xlink="http://www.w3.org/1999/xlink" x="0px" y="0px" viewBox="0 0 100 100"
	 enable-background="new 0 0 100 100" xml:space="preserve">
<path id="path4" d="M86.3,75.1c-1.4,3.1-3,6-4.8,8.7c-2.5,3.6-4.6,6.1-6.2,7.5c-2.5,2.3-5.2,3.5-8,3.5c-2,0-4.5-0.6-7.4-1.8
	c-2.9-1.2-5.5-1.8-8-1.8c-2.5,0-5.3,0.6-8.2,1.8c-2.9,1.2-5.3,1.8-7.1,1.9c-2.7,0.1-5.5-1.1-8.2-3.6c-1.7-1.5-3.9-4.1-6.5-7.8
	c-2.8-3.9-5.1-8.5-6.9-13.7c-1.9-5.6-2.9-11.1-2.9-16.3c0-6,1.3-11.2,3.9-15.6c2.1-3.5,4.8-6.3,8.2-8.3c3.4-2,7.1-3.1,11.1-3.1
	c2.2,0,5,0.7,8.6,2c3.5,1.3,5.8,2,6.8,2c0.7,0,3.3-0.8,7.5-2.4c4-1.5,7.5-2.1,10.2-1.8c7.6,0.6,13.3,3.6,17,9
	c-6.8,4.1-10.1,9.9-10.1,17.2c0.1,5.7,2.1,10.5,6.2,14.3c1.9,1.8,3.9,3.1,6.2,4.1C87.4,72.4,86.9,73.8,86.3,75.1L86.3,75.1z
	 M68.9,6.8c0,4.5-1.6,8.7-4.9,12.6c-4,4.6-8.7,7.3-13.9,6.9C50,25.7,50,25.2,50,24.6c0-4.3,1.9-8.9,5.2-12.7
	c1.7-1.9,3.8-3.5,6.4-4.8c2.6-1.3,5-1.9,7.3-2.1C68.9,5.6,68.9,6.2,68.9,6.8L68.9,6.8z"/>
</svg>
