<?xml version="1.0" encoding="utf-8"?>
<!-- Generator: Adobe Illustrator 23.1.0, SVG Export Plug-In . SVG Version: 6.00 Build 0)  -->
<svg version="1.1" id="Layer_1" xmlns="http://www.w3.org/2000/svg" xmlns:xlink="http://www.w3.org/1999/xlink" x="0px" y="0px"
	 viewBox="0 0 24 24" enable-background="new 0 0 24 24" xml:space="preserve">
<g>
	<path fill="#1F89DE" d="M22,14.2c0-0.5-0.4-0.8-0.9-0.9c0,0-0.1,0-0.1,0h-3.2v-2.1c0,0,0,0,0-0.1l0,0c0-0.4-0.4-0.8-0.9-0.8
		c-0.1,0-0.3,0-0.4,0c-0.4,0-1-0.1-1.3,0.3c-0.3,0.3-0.2,0.7-0.2,1.1v1.6h-1.5v-5c0,0,0,0,0-0.1c0-0.4-0.4-0.7-0.8-0.8
		c-0.1,0-0.2,0-0.3,0c-0.3,0-0.6,0-0.9,0c-0.5,0-0.9,0.4-0.9,0.9c0,0.1,0,0.3,0,0.4v4.6h0c-0.3,0-0.6,0-1,0c-0.5,0-0.8,0.4-0.9,0.9
		c0,0,0,0.1,0,0.1v1.6H2.9c-0.1,0-0.3,0-0.4,0c-0.5,0-0.8,0.4-0.8,0.9c0,0.1,0,0.1,0,0.2v4.7c0,0.2,0,0.3,0,0.5
		C1.7,22.6,2,23,2.5,23c0,0,0.1,0,0.1,0h6.5c0.1,0,0.1,0,0.2,0c0.1,0,0.1,0,0.2,0c0.1,0,0.2,0,0.3,0H21c0,0,0.1,0,0.1,0
		c0.5,0,0.8-0.3,0.8-0.8v0l0,0c0,0,0,0,0,0c0,0,0,0,0,0l0,0v-6.7C22,15,22,14.6,22,14.2z M7.1,19.6c0,0.1-0.1,0.2-0.2,0.2H4.4
		c-0.1,0-0.2-0.1-0.2-0.2v-1.3c0-0.1,0.1-0.2,0.2-0.2h2.5c0,0,0,0,0.1,0c0,0,0,0,0,0c0,0,0.1,0,0.1,0.1l0,0v0h0h0h0
		c0,0,0,0.1,0.1,0.1c0,0,0,0,0,0.1L7.1,19.6L7.1,19.6z M12.8,18.3c0,0.1-0.1,0.2-0.2,0.2h-1.3c-0.1,0-0.2-0.1-0.2-0.2v-2.6
		c0-0.1,0.1-0.2,0.2-0.2h1.3c0.1,0,0.1,0,0.2,0.1c0,0,0.1,0.1,0.1,0.2V18.3z M16.2,18.3c0,0.1-0.1,0.2-0.2,0.2h-1.3
		c-0.1,0-0.2-0.1-0.2-0.2v-2.6c0-0.1,0.1-0.2,0.2-0.2h1.3c0.1,0,0.1,0,0.2,0.1c0,0,0.1,0.1,0.1,0.2V18.3z M19.5,18.3
		c0,0.1-0.1,0.2-0.2,0.2H18c-0.1,0-0.2-0.1-0.2-0.2v-2.6c0-0.1,0.1-0.2,0.2-0.2h1.3c0.1,0,0.1,0,0.2,0.1c0,0,0.1,0.1,0.1,0.2V18.3
		L19.5,18.3z"/>
	<path fill="#1F89DE" d="M22.2,7.3C22,6.8,21.5,6.5,21,6.3c-0.8-0.2-1.6-0.2-2.4-0.1c-0.6,0.1-1.2,0.4-1.8,0.8
		c-0.5,0.4-1,1.1-1.2,1.8c0,0,0,0,0,0c-0.1,0.3,0.1,0.6,0.5,0.6h1c0.1,0,0.2,0,0.3-0.1c0,0,0,0,0,0h0l0,0h0l0,0l0,0l0,0l0,0l0,0
		c0,0,0,0,0,0c0,0,0,0,0,0c0,0,0,0,0,0l0,0l0,0l0,0l0,0c0,0,0,0,0,0c0,0,0,0,0,0c0,0,0,0,0,0c0,0,0,0,0,0c0,0,0,0,0,0c0,0,0,0,0,0
		c0,0,0,0,0,0c-0.1,0,0.1-0.1,0,0c0,0,0,0,0,0c0,0,0.1,0,0.1,0c0,0,0,0,0,0h0c0,0,0,0,0,0c0,0,0,0,0,0c0.1,0,0,0,0,0h0
		c0.1,0,0.2,0,0.2,0c0,0,0.1,0,0.1,0c0,0,0,0,0,0c0,0,0,0,0,0c0,0,0.1,0,0,0c0,0,0,0,0,0c0.2,0,0.4,0.1,0.6,0.2
		c0.7,0.3,1.5,0.5,2.3,0.3c0.4-0.1,0.9-0.2,1.1-0.6c0.1-0.2,0.2-0.5,0.3-0.7C22.4,8.1,22.4,7.7,22.2,7.3z"/>
	<path fill="#1F89DE" d="M18,2.7c-0.3-0.4-0.8-0.7-1.3-0.8c-0.4-0.1-0.9-0.2-1.4-0.2c-0.2,0-0.5,0-0.7,0c0,0,0,0,0.1,0.1
		c0,0,0,0,0,0c0,0,0,0,0,0c0,0,0,0,0,0c0,0,0,0,0,0l-0.2-0.1c0,0,0,0,0,0c0,0,0.1,0,0.1,0c0,0,0,0,0,0c0,0,0,0,0,0c0,0,0,0,0,0
		c0,0.1-0.1-0.1,0,0c0,0,0,0,0,0c0,0,0,0,0-0.1c-0.1-0.2-0.3-0.4-0.5-0.5C13.7,1,13.4,1,13.1,1c-0.5,0.1-1,0.2-1.4,0.4
		c-0.7,0.3-1.2,0.9-1.3,1.7c-0.1,0.7,0,1.3,0.1,2c0.1,0.4,0.2,0.8,0.4,1.1c0.1,0.1,0.3,0.2,0.4,0.2h1.2c0.1,0,0.2,0,0.3-0.1
		c0,0,0,0,0,0l0,0l0,0c0.1-0.1,0.1-0.1,0.1-0.2c0.1-0.2,0.1-0.4,0.2-0.7c0-0.1,0.1-0.2,0.1-0.3c0,0,0,0,0-0.1c0,0,0,0,0,0
		c0,0,0,0,0,0c0-0.1,0-0.1,0,0c0,0,0-0.1,0-0.1c0.1-0.1,0.1-0.3,0.2-0.4c0,0,0.1-0.1,0.1-0.1c0,0,0,0,0,0c0,0.1,0.1-0.1,0,0
		c0,0,0,0,0,0c0,0,0,0,0.1-0.1c0,0,0,0,0.1-0.1c0,0,0,0,0,0c0,0,0,0,0,0c0,0,0,0,0,0c0,0,0,0,0,0c0,0,0,0,0,0c0,0,0,0,0,0l0,0
		c0,0,0,0,0,0l0,0c0,0,0,0,0,0h0c0,0,0,0,0,0l0,0c0,0,0,0,0,0c0,0,0,0,0,0c0,0,0,0,0,0c0,0,0,0,0,0c0,0,0,0,0,0c0,0,0,0,0,0
		c0,0,0,0,0,0l0,0h0c0,0,0,0,0,0l0,0l0,0l0,0l0,0c0,0,0,0,0,0c0,0,0,0,0,0s0,0,0,0c0,0,0,0,0.1,0c0,0,0,0,0.1,0c0,0,0,0,0,0
		c-0.1-0.1,0.1,0.1,0,0c0,0,0,0,0,0c0,0,0,0,0,0c0.1,0,0.1,0.1,0.2,0.2c0.1,0.1,0.2,0.2,0.3,0.4c0.3,0.3,0.6,0.6,1,0.7
		c0.5,0.2,1,0.2,1.5,0c0.6-0.2,1-0.7,1.2-1.4C18.3,3.9,18.3,3.2,18,2.7z"/>
</g>
</svg>
