<?xml version="1.0" encoding="utf-8"?>
<!-- Generator: Adobe Illustrator 23.1.0, SVG Export Plug-In . SVG Version: 6.00 Build 0)  -->
<svg version="1.1" id="svg4419" xmlns:svg="http://www.w3.org/2000/svg"
	 xmlns="http://www.w3.org/2000/svg" xmlns:xlink="http://www.w3.org/1999/xlink" x="0px" y="0px" viewBox="0 0 100 100"
	 enable-background="new 0 0 100 100" xml:space="preserve">
<g>
	<path id="path4423" fill="#0071C5" d="M31.5,45.5V60h-4.6V41.8l9.6,0c4.1,0,5.4,2.9,5.4,5.5V60h-4.6V47.3c0-1.1-0.6-1.8-1.9-1.8
		L31.5,45.5L31.5,45.5z M63,45.3c-1.6,0-2.8,0.8-3.3,1.9c-0.3,0.7-0.4,1.2-0.4,2h7.1C66.2,47.2,65.3,45.3,63,45.3 M59.2,52.3
		c0,2.4,1.5,4.1,4.1,4.1c2,0,3.1-0.6,4.2-1.7l2.9,2.7c-1.8,1.8-3.7,2.9-7.1,2.9c-4.4,0-8.7-2.4-8.7-9.5c0-6,3.7-9.4,8.6-9.4
		c4.9,0,7.8,4,7.8,9.2v1.7L59.2,52.3 M50.7,60c-3.8,0-5.4-2.6-5.4-5.2v-18H50v5h3.5v3.7H50v9c0,1.1,0.5,1.7,1.6,1.7h1.9V60L50.7,60
		 M22.8,39.2h-4.7v-4.4h4.7C22.8,34.8,22.8,39.2,22.8,39.2z M22.8,60.2c-3.5-0.3-4.7-2.5-4.7-4.9l0-13.6h4.7L22.8,60.2L22.8,60.2z
		 M78.3,59.8c-3.5-0.3-4.7-2.4-4.7-4.9V34.2h4.7V59.8z M94.6,37.2c-4.2-20.6-44.2-21.9-70-6.2v1.7c25.7-13.2,62.3-13.2,65.6,5.8
		c1.1,6.3-2.4,12.8-8.7,16.6V60C89.1,57.2,96.9,48.2,94.6,37.2 M47.8,73.2C30,74.9,11.4,72.3,8.8,58.4c-1.3-6.9,1.9-14.1,6-18.6
		v-2.4C7.4,43.9,3.3,52.2,5.7,61.9c3,12.5,18.9,19.6,43.2,17.3c9.6-0.9,22.2-4,30.9-8.8v-6.8C71.8,68.3,58.7,72.2,47.8,73.2"/>
	<path id="path4425" fill="#0071C5" d="M83.7,35.6c0-0.2-0.1-0.3-0.4-0.3H83v0.6c0,0,0.3,0,0.3,0C83.6,35.9,83.7,35.8,83.7,35.6
		L83.7,35.6L83.7,35.6z M84.1,37.2h-0.3c0,0-0.1,0-0.1,0l-0.5-0.8c0,0,0,0-0.1,0H83v0.8c0,0,0,0.1-0.1,0.1h-0.3c0,0-0.1,0-0.1-0.1
		v-2c0-0.1,0-0.2,0.1-0.2c0.1,0,0.4,0,0.6,0c0.6,0,0.9,0.2,0.9,0.7v0c0,0.3-0.2,0.5-0.4,0.6l0.5,0.8C84.2,37,84.2,37.1,84.1,37.2
		C84.2,37.1,84.2,37.2,84.1,37.2 M83.3,34.5c-0.8,0-1.5,0.7-1.5,1.5c0,0.8,0.7,1.5,1.5,1.5c0.8,0,1.5-0.7,1.5-1.5
		C84.9,35.2,84.2,34.5,83.3,34.5 M83.3,37.9c-1,0-1.9-0.8-1.9-1.9c0-1,0.8-1.9,1.9-1.9c1,0,1.9,0.8,1.9,1.9
		C85.2,37.1,84.3,37.9,83.3,37.9"/>
</g>
</svg>
