<?xml version="1.0" encoding="utf-8"?>
<!-- Generator: Adobe Illustrator 23.1.0, SVG Export Plug-In . SVG Version: 6.00 Build 0)  -->
<svg version="1.1" id="Layer_1" xmlns="http://www.w3.org/2000/svg" xmlns:xlink="http://www.w3.org/1999/xlink" x="0px" y="0px"
	 viewBox="0 0 24 24" style="enable-background:new 0 0 24 24;" xml:space="preserve">
<style type="text/css">
	.st0{fill:#FFFFFF;}
</style>
<g id="Group_360" transform="translate(1 1)">
	<path id="Path_353" class="st0" d="M22,15.8V1.4C22,0.6,21.4,0,20.6,0H1.4C0.6,0,0,0.6,0,1.4v14.4c0,0.8,0.6,1.4,1.4,1.4h19.3
		C21.4,17.2,22,16.6,22,15.8z M20.5,13.7h-19c-0.1,0-0.2-0.1-0.2-0.2v-12c0-0.1,0.1-0.2,0.2-0.2h18.9c0.1,0,0.2,0.1,0.2,0.2v12
		C20.6,13.7,20.5,13.7,20.5,13.7z"/>
	<path id="Path_354" class="st0" d="M15.3,22c0.4,0,0.7-0.3,0.7-0.7c0-0.1,0-0.2-0.1-0.4l-1.2-2.1c-0.1-0.2-0.3-0.3-0.6-0.3H8
		c-0.2,0-0.5,0.1-0.6,0.3L6.1,21c-0.2,0.3-0.1,0.7,0.2,0.9C6.5,22,6.6,22,6.7,22H15.3z"/>
	<path id="Path_355" class="st0" d="M5.5,6.2H4.1c-0.4,0-0.7,0.3-0.7,0.7v4.8c0,0.4,0.3,0.7,0.7,0.7h1.4c0.4,0,0.7-0.3,0.7-0.7V6.8
		C6.2,6.5,5.9,6.2,5.5,6.2L5.5,6.2z"/>
	<path id="Path_356" class="st0" d="M9.6,2.7H8.3C7.9,2.7,7.6,3,7.6,3.4v8.2c0,0.4,0.3,0.7,0.7,0.7h1.4c0.4,0,0.7-0.3,0.7-0.7V3.4
		C10.3,3,10,2.7,9.6,2.7z"/>
	<path id="Path_357" class="st0" d="M13.8,8.9h-1.4c-0.4,0-0.7,0.3-0.7,0.7v2.1c0,0.4,0.3,0.7,0.7,0.7h1.4c0.4,0,0.7-0.3,0.7-0.7
		V9.6C14.4,9.2,14.1,8.9,13.8,8.9L13.8,8.9z"/>
	<path id="Path_358" class="st0" d="M17.9,4.1h-1.4c-0.4,0-0.7,0.3-0.7,0.7v6.9c0,0.4,0.3,0.7,0.7,0.7h1.4c0.4,0,0.7-0.3,0.7-0.7
		V4.8C18.6,4.4,18.3,4.1,17.9,4.1L17.9,4.1z"/>
</g>
</svg>
