<?xml version="1.0" encoding="utf-8"?>
<!-- Generator: Adobe Illustrator 22.0.1, SVG Export Plug-In . SVG Version: 6.00 Build 0)  -->
<svg version="1.1" id="Layer_1" xmlns="http://www.w3.org/2000/svg" xmlns:xlink="http://www.w3.org/1999/xlink" x="0px" y="0px"
	 viewBox="0 0 24 24" style="enable-background:new 0 0 24 24;" xml:space="preserve">
<style type="text/css">
	.st0{fill:#CC3399;}
	.st1{fill:#8EAADB;}
</style>
<polygon class="st0" points="10.5,19 10.5,20.4 9.1,20.4 12,23 14.9,20.4 13.5,20.4 13.5,19 "/>
<polygon class="st0" points="11.6,5.6 10.8,4.8 10.3,5.3 12,7 13.7,5.3 13.2,4.8 12.4,5.6 12.4,3.9 14.2,3.9 14.2,1 9.8,1 9.8,3.9 
	11.6,3.9 "/>
<rect x="11.6" y="10.9" class="st1" width="0.7" height="0.7"/>
<rect x="11.6" y="13.8" class="st1" width="0.7" height="0.7"/>
<rect x="13.1" y="12.4" class="st1" width="0.7" height="0.7"/>
<rect x="10.2" y="12.4" class="st1" width="0.7" height="0.7"/>
<rect x="11.6" y="12.4" class="st1" width="0.7" height="0.7"/>
<path class="st1" d="M19.1,11.3l1.5-1.5h0.3c0.2,0.4,0.6,0.7,1,0.7c0.6,0,1.1-0.5,1.1-1.1s-0.5-1.1-1.1-1.1c-0.5,0-0.9,0.3-1,0.7
	h-0.6l-1.5,1.5h-0.9V8.7c0-0.8-0.7-1.5-1.5-1.5H7.6c-0.8,0-1.5,0.7-1.5,1.5v1.8H5.2L3.7,9.1H3.1C3,8.6,2.6,8.3,2.1,8.3
	C1.5,8.3,1,8.8,1,9.4s0.5,1.1,1.1,1.1c0.5,0,0.9-0.3,1-0.7h0.3l1.5,1.5h1.3v1.1h-3c-0.2-0.4-0.6-0.7-1-0.7c-0.6,0-1.1,0.5-1.1,1.1
	s0.5,1.1,1.1,1.1c0.5,0,0.9-0.3,1-0.7h3v1.1H4.9l-1.5,1.5H3.1c-0.2-0.4-0.6-0.7-1-0.7C1.5,14.9,1,15.4,1,16s0.5,1.1,1.1,1.1
	c0.5,0,0.9-0.3,1-0.7h0.6l1.5-1.5h0.9v1.8c0,0.8,0.7,1.5,1.5,1.5h8.8c0.8,0,1.5-0.7,1.5-1.5v-1.8h0.9l1.5,1.5h0.6
	c0.2,0.4,0.6,0.7,1,0.7c0.6,0,1.1-0.5,1.1-1.1s-0.5-1.1-1.1-1.1c-0.5,0-0.9,0.3-1,0.7h-0.3l-1.5-1.5h-1.3V13h3
	c0.2,0.4,0.6,0.7,1,0.7c0.6,0,1.1-0.5,1.1-1.1s-0.5-1.1-1.1-1.1c-0.5,0-0.9,0.3-1,0.7h-3v-1.1h1.3V11.3z M15.6,13.2l-0.8,0.3
	c-0.1,0.2-0.1,0.4-0.3,0.6l0.3,0.8c-0.2,0.2-0.4,0.5-0.7,0.7l-0.8-0.3c-0.2,0.1-0.4,0.2-0.6,0.3l-0.3,0.8c-0.2,0-0.3,0-0.5,0
	s-0.3,0-0.5,0l-0.3-0.8c-0.2-0.1-0.4-0.1-0.6-0.3l-0.8,0.3c-0.2-0.2-0.5-0.4-0.7-0.7l0.3-0.8c-0.1-0.2-0.2-0.4-0.3-0.6l-0.8-0.3
	c0-0.2,0-0.3,0-0.5s0-0.3,0-0.5L9,11.9c0.1-0.2,0.1-0.4,0.3-0.6L9,10.5c0.2-0.2,0.4-0.5,0.7-0.7l0.8,0.3c0.2-0.1,0.4-0.2,0.6-0.3
	L11.4,9c0.2,0,0.3,0,0.5,0s0.3,0,0.5,0l0.3,0.8c0.2,0.1,0.4,0.1,0.6,0.3l0.8-0.3c0.2,0.2,0.5,0.4,0.7,0.7l-0.3,0.8
	c0.1,0.2,0.2,0.4,0.3,0.6l0.8,0.3c0,0.2,0,0.3,0,0.5C15.7,12.9,15.7,13,15.6,13.2z"/>
</svg>
