<?xml version="1.0" encoding="utf-8"?>
<!-- Generator: Adobe Illustrator 23.1.0, SVG Export Plug-In . SVG Version: 6.00 Build 0)  -->
<svg version="1.1" id="svg2" xmlns:svg="http://www.w3.org/2000/svg"
	 xmlns="http://www.w3.org/2000/svg" xmlns:xlink="http://www.w3.org/1999/xlink" x="0px" y="0px" viewBox="0 0 100 100"
	 enable-background="new 0 0 100 100" xml:space="preserve">
<g>
	<path id="path21" fill="#77B900" d="M14.2,45.8c0,0,8.2-12,24.4-13.3v-4.4C20.7,29.6,5,44.8,5,44.8s8.9,25.6,33.6,27.8V68
		C20.4,65.9,14.2,45.8,14.2,45.8z M38.6,59v4.2c-13.7-2.4-17.5-16.7-17.5-16.7s6.6-7.3,17.5-8.5v4.7l0,0c-5.8-0.7-10.2,4.7-10.2,4.7
		S30.9,56.4,38.6,59 M38.6,20.3v8.1c0.6,0,1-0.1,1.6-0.1C60.7,27.5,74.1,45,74.1,45S58.7,63.6,42.7,63.6c-1.4,0-2.8-0.1-4.1-0.4v4.9
		c1.1,0.1,2.3,0.3,3.4,0.3c14.8,0,25.6-7.6,36-16.5c1.7,1.4,8.8,4.8,10.2,6.2c-9.9,8.3-32.9,15-46.1,15c-1.3,0-2.4-0.1-3.7-0.1v6.8
		H95V20.3H38.6z M38.6,38.1v-5.4c0.6,0,1,0,1.6-0.1c14.7-0.4,24.4,12.7,24.4,12.7S54.2,59.8,43,59.8c-1.6,0-3.1-0.3-4.4-0.7V42.6
		c5.8,0.7,6.9,3.2,10.3,8.9l7.6-6.5c0,0-5.7-7.3-15-7.3C40.6,37.8,39.6,37.9,38.6,38.1"/>
</g>
</svg>
