<?xml version="1.0" encoding="utf-8"?>
<!-- Generator: Adobe Illustrator 23.1.0, SVG Export Plug-In . SVG Version: 6.00 Build 0)  -->
<svg version="1.1" id="Layer_1" xmlns="http://www.w3.org/2000/svg" xmlns:xlink="http://www.w3.org/1999/xlink" x="0px" y="0px"
	 viewBox="0 0 40 40" style="enable-background:new 0 0 40 40;" xml:space="preserve">
<style type="text/css">
	.st0{fill:#EE3E2C;}
	.st1{fill:#FFFFFF;}
</style>
<g transform="translate(0.047)">
	<circle class="st0" cx="20" cy="20" r="20"/>
	<path class="st1" d="M20.2,7.8c-0.3-1.1-1-1.6-1.6-1.5c-0.8,0.1-1.5,0.5-1.8,1.2c-0.9,2,0.9,7.8,1.2,8.8
		c-1.8,5.4-7.8,16.1-10.8,16.8c-0.1-0.7,0.3-2.8,4.2-5.3c0.2-0.2,0.4-0.4,0.5-0.7c-3.3,1.6-7.6,4.3-5,6.2c0.2,0.1,0.4,0.2,0.6,0.3
		c2,0.7,4.8-1.7,7.5-7.2c2.9-1.1,6-1.8,9-2.3c3.8,2.6,6.4,3.2,8.1,2.5c0.7-0.3,1.2-0.9,1.5-1.6c-1.4,1.8-4.7,0.5-7.4-1.1
		c2-0.3,4-0.4,6.1-0.1c1.4,0.4,1.3,1.1,1.3,1.2c0.2-0.5,0.2-1,0-1.5c-1.2-1.9-6.5-0.8-8.5-0.6c-2.8-1.8-4.9-4.5-6-7.6
		C19.9,12.2,20.8,10,20.2,7.8 M18.8,14.3c-0.5-1.8-1.2-5.9-0.1-7.3C21,8.3,19.6,11.4,18.8,14.3 M23.1,23.4c-2.7,0.5-5.3,1.4-7.8,2.5
		c1.3-2.8,2.4-5.8,3.3-8.8C19.6,19.4,21.1,21.6,23.1,23.4"/>
</g>
</svg>
