<?xml version="1.0" encoding="utf-8"?>
<!-- Generator: Adobe Illustrator 23.1.0, SVG Export Plug-In . SVG Version: 6.00 Build 0)  -->
<svg version="1.1" id="Layer_1" xmlns="http://www.w3.org/2000/svg" xmlns:xlink="http://www.w3.org/1999/xlink" x="0px" y="0px"
	 viewBox="0 0 24 24" style="enable-background:new 0 0 24 24;" xml:space="preserve">
<style type="text/css">
	.st0{fill:#FFFFFF;}
</style>
<g id="ic_predict-ai" transform="translate(-9.6 -2.5)">
	<path id="Path_363" class="st0" d="M30.8,14.7l-2.1-3.2c-0.1-0.2-0.2-0.4-0.2-0.6c-0.4-4.5-4.3-7.8-8.8-7.4
		c-4.2,0.4-7.5,3.9-7.4,8.1c0,2.7,1.2,5.2,3.3,7c0.2,0.2,0.4,0.5,0.4,0.8v4.7c0,0.4,0.3,0.7,0.6,0.7l7,0.6c0.4,0,0.7-0.3,0.8-0.6
		c0,0,0,0,0-0.1v-3.3c0-0.2,0.2-0.4,0.4-0.4h2.5c0.7,0,1.4-0.6,1.4-1.3l0,0v-3.3c0-0.2,0.1-0.3,0.3-0.3h1c0.5,0,0.9-0.4,0.9-0.9
		C31,15.1,30.9,14.9,30.8,14.7z M22.4,17.6c-0.5,0-0.9-0.3-1.1-0.8h-2c-0.2,0-0.3-0.2-0.3-0.3v-1.6h-2c-0.2,0-0.3-0.2-0.3-0.3
		s0.2-0.3,0.3-0.3l0,0h2.3c0.2,0,0.3,0.2,0.3,0.3v1.6h1.6c0.1-0.5,0.6-0.8,1.1-0.8c0.6,0,1.2,0.5,1.2,1.2
		C23.6,17.1,23,17.6,22.4,17.6z M22.4,13.4c-0.5,0-0.9-0.3-1.1-0.8h-5.6c-0.2,0-0.3-0.2-0.3-0.3s0.2-0.3,0.3-0.3l0,0h5.6
		c0.2-0.6,0.8-0.9,1.4-0.7s0.9,0.8,0.7,1.4C23.4,13.1,22.9,13.4,22.4,13.4L22.4,13.4z M22.4,9.2c-0.5,0-0.9-0.3-1.1-0.8h-1.6V10
		c0,0.2-0.2,0.3-0.3,0.3H17c-0.2,0-0.3-0.2-0.3-0.3c0-0.2,0.2-0.3,0.3-0.3h2V8.1c0-0.2,0.2-0.3,0.3-0.3h2c0.2-0.6,0.8-0.9,1.4-0.8
		c0.5,0.1,0.8,0.6,0.8,1.1C23.6,8.7,23.1,9.2,22.4,9.2L22.4,9.2L22.4,9.2z"/>
</g>
</svg>
