<?xml version="1.0" encoding="utf-8"?>
<!-- Generator: Adobe Illustrator 22.0.1, SVG Export Plug-In . SVG Version: 6.00 Build 0)  -->
<svg version="1.1" id="Layer_1" xmlns="http://www.w3.org/2000/svg" xmlns:xlink="http://www.w3.org/1999/xlink" x="0px" y="0px"
	 viewBox="0 0 24 24" style="enable-background:new 0 0 24 24;" xml:space="preserve">
<style type="text/css">
	.st0{fill:#8EAADB;}
	.st1{fill:#CC3399;}
</style>
<path class="st0" d="M21.2,12.2L19.1,9c-0.1-0.2-0.2-0.4-0.2-0.6c-0.4-4.5-4.3-7.8-8.8-7.4C5.9,1.4,2.6,4.9,2.7,9.1
	c0,2.7,1.2,5.2,3.3,7c0.2,0.2,0.4,0.5,0.4,0.8v4.7c0,0.4,0.3,0.7,0.6,0.7l7,0.6c0.4,0,0.7-0.3,0.8-0.6c0,0,0,0,0-0.1v-3.3
	c0-0.2,0.2-0.4,0.4-0.4h2.5c0.7,0,1.4-0.6,1.4-1.3l0,0v-3.3c0-0.2,0.1-0.3,0.3-0.3h1c0.5,0,0.9-0.4,0.9-0.9
	C21.4,12.6,21.3,12.4,21.2,12.2z"/>
<path class="st1" d="M12.8,15.1c-0.5,0-0.9-0.3-1.1-0.8h-2c-0.2,0-0.3-0.2-0.3-0.3v-1.6h-2c-0.2,0-0.3-0.2-0.3-0.3s0.2-0.3,0.3-0.3
	l0,0h2.3c0.2,0,0.3,0.2,0.3,0.3v1.6h1.6c0.1-0.5,0.6-0.8,1.1-0.8c0.6,0,1.2,0.5,1.2,1.2C14,14.6,13.4,15.1,12.8,15.1z"/>
<path class="st1" d="M12.8,10.9c-0.5,0-0.9-0.3-1.1-0.8H6.1c-0.2,0-0.3-0.2-0.3-0.3S6,9.5,6.1,9.5l0,0h5.6c0.2-0.6,0.8-0.9,1.4-0.7
	s0.9,0.8,0.7,1.4C13.8,10.6,13.3,10.9,12.8,10.9L12.8,10.9z"/>
<path class="st1" d="M12.8,6.7c-0.5,0-0.9-0.3-1.1-0.8h-1.6v1.6c0,0.2-0.2,0.3-0.3,0.3H7.4c-0.2,0-0.3-0.2-0.3-0.3
	c0-0.2,0.2-0.3,0.3-0.3h2V5.6c0-0.2,0.2-0.3,0.3-0.3h2c0.2-0.6,0.8-0.9,1.4-0.8c0.5,0.1,0.8,0.6,0.8,1.1C14,6.2,13.5,6.7,12.8,6.7
	L12.8,6.7L12.8,6.7z"/>
</svg>
