<?xml version="1.0" encoding="utf-8"?>
<!-- Generator: Adobe Illustrator 22.0.1, SVG Export Plug-In . SVG Version: 6.00 Build 0)  -->
<svg version="1.1" id="Layer_1" xmlns="http://www.w3.org/2000/svg" xmlns:xlink="http://www.w3.org/1999/xlink" x="0px" y="0px"
	 viewBox="0 0 24 24" style="enable-background:new 0 0 24 24;" xml:space="preserve">
<style type="text/css">
	.st0{fill:#8EAADB;}
	.st1{fill:#CC3399;}
</style>
<g>
	<path class="st0" d="M13.7,22.7v-4.9c0-0.2-0.2-0.3-0.3-0.3h-2.8c-0.2,0-0.3,0.1-0.3,0.3v4.9c0,0.2,0.1,0.3,0.3,0.3h2.8
		C13.6,23,13.7,22.8,13.7,22.7z M11.8,19.3c-0.1-0.1-0.1-0.3,0-0.4s0.3-0.1,0.4,0c0.1,0.1,0.1,0.3,0,0.4
		C12.1,19.5,11.9,19.5,11.8,19.3z M11.8,21.6c-0.1-0.1-0.1-0.3,0-0.4s0.3-0.1,0.4,0c0.1,0.1,0.1,0.3,0,0.4
		C12.1,21.7,11.9,21.7,11.8,21.6z"/>
</g>
<g>
	<path class="st0" d="M5.4,22.7v-4.9c0-0.2-0.2-0.3-0.3-0.3H2.2c-0.2,0-0.3,0.1-0.3,0.3v4.9c0,0.2,0.2,0.3,0.3,0.3H5
		C5.2,23,5.4,22.8,5.4,22.7z M3.4,19.3c-0.1-0.1-0.1-0.3,0-0.4s0.3-0.1,0.4,0C4,19,4,19.2,3.9,19.3C3.8,19.5,3.5,19.5,3.4,19.3z
		 M3.4,21.6c-0.1-0.1-0.1-0.3,0-0.4s0.3-0.1,0.4,0c0.1,0.1,0.1,0.3,0,0.4C3.8,21.7,3.6,21.7,3.4,21.6z"/>
</g>
<g>
	<path class="st0" d="M22.1,22.7v-4.9c0-0.2-0.1-0.3-0.3-0.3H19c-0.2,0-0.3,0.1-0.3,0.3v4.9c0,0.2,0.2,0.3,0.3,0.3h2.8
		C21.9,23,22.1,22.8,22.1,22.7z M20.1,19.3c-0.1-0.1-0.1-0.3,0-0.4s0.3-0.1,0.4,0s0.1,0.3,0,0.4C20.4,19.5,20.2,19.5,20.1,19.3z
		 M20.1,21.6c-0.1-0.1-0.1-0.3,0-0.4s0.3-0.1,0.4,0s0.1,0.3,0,0.4S20.2,21.7,20.1,21.6z"/>
</g>
<path class="st1" d="M6.6,14c-0.2,0-0.9,0-2.9,0c-0.2,0-0.3,0.1-0.3,0.3v2c0,0.2,0.1,0.3,0.3,0.3S4,16.5,4,16.3v-1.7h7.7v1.7
	c0,0.2,0.1,0.3,0.3,0.3s0.3-0.1,0.3-0.3v-1.7H20v1.7c0,0.2,0.1,0.3,0.3,0.3s0.3-0.1,0.3-0.3v-2c0-0.2-0.1-0.3-0.3-0.3
	c-1.4,0-2.9,0-4.3,0c-0.1,0-0.2,0-0.3,0s-0.2,0-0.4,0c-2.7,0-5.5,0-8.2,0c-0.1,0-0.2,0-0.3,0C6.7,14,6.6,14,6.6,14z"/>
<path class="st0" d="M17.2,4.3c0.2,0,0.3-0.1,0.3-0.3c0-0.2-0.1-0.3-0.3-0.3h-1.4c-0.1-0.5-0.5-1-1.1-1.1V1.3c0-0.2-0.1-0.3-0.3-0.3
	s-0.3,0.1-0.3,0.3v1.4H13V1.3C13.1,1.1,13,1,12.8,1s-0.3,0.1-0.3,0.3v1.4h-1.1V1.3c0-0.2-0.1-0.3-0.3-0.3s-0.3,0.1-0.3,0.3v1.4h-1
	V1.3C9.8,1.1,9.7,1,9.5,1S9.3,1.1,9.3,1.3v1.4c-0.5,0.1-1,0.5-1.1,1.1H6.8C6.6,3.7,6.5,3.9,6.5,4c0,0.2,0.1,0.3,0.3,0.3h1.4v1.1H6.8
	c-0.2,0-0.3,0.1-0.3,0.3S6.6,6,6.8,6h1.4v1H6.8C6.6,7,6.5,7.2,6.5,7.3c0,0.2,0.1,0.3,0.3,0.3h1.4v1.1H6.8C6.6,8.7,6.5,8.8,6.5,9
	s0.1,0.3,0.3,0.3h1.4c0.1,0.5,0.5,1,1.1,1.1v1.4c0,0.2,0.1,0.3,0.3,0.3s0.3-0.1,0.3-0.3v-1.4H11v1.4c0,0.2,0.1,0.3,0.3,0.3
	s0.3-0.1,0.3-0.3v-1.4h1.1v1.4c0,0.2,0.1,0.3,0.3,0.3s0.3-0.1,0.3-0.3v-1.4h1.1v1.4c0,0.2,0.1,0.3,0.3,0.3S15,12,15,11.8v-1.4
	c0.5-0.1,1-0.5,1.1-1.1h1.4c0.2,0,0.3-0.1,0.3-0.3s-0.1-0.3-0.3-0.3h-1.4V7.6h1.4c0.2,0,0.3-0.1,0.3-0.3c0-0.2-0.1-0.3-0.3-0.3h-1.4
	V5.9h1.4c0.2,0,0.3-0.1,0.3-0.3s-0.1-0.3-0.3-0.3h-1.4v-1H17.2z"/>
</svg>
