<?xml version="1.0" encoding="utf-8"?>
<!-- Generator: Adobe Illustrator 23.1.0, SVG Export Plug-In . SVG Version: 6.00 Build 0)  -->
<svg version="1.1" id="Layer_1" xmlns="http://www.w3.org/2000/svg" xmlns:xlink="http://www.w3.org/1999/xlink" x="0px" y="0px"
	 viewBox="0 0 24 24" enable-background="new 0 0 24 24" xml:space="preserve">
<g display="none">
	<g display="inline">
		<path fill="#1F89DE" d="M21,15.5h-6.4V6.4c0-0.2-0.2-0.3-0.3-0.3h-1.6c-0.2,0-0.3,0.1-0.3,0.3v9.5L9.7,9c-0.2-0.4-0.5-0.7-1-0.7
			H3.6c-0.6,0-1,0.4-1,1v5.4H2.2c-0.1,0-0.2,0-0.2,0.1c-0.4,0.4-0.7,1.1-0.8,1.7c-0.2,1-0.2,2.3,0,3.4c0.1,0.5,0.3,1.2,0.8,1.6
			C2,21.6,2,21.6,2.2,21.6h0.5c0-0.1,0-0.2,0-0.3c0-1.2,1-2.1,2.1-2.1s2.1,1,2.1,2.1c0,0.1,0,0.2,0,0.3H11c0-0.1,0-0.2,0-0.3
			c0-1.2,1-2.1,2.1-2.1s2.1,1,2.1,2.1c0,0.1,0,0.2,0,0.3h0.7c0.4,0,0.7-0.3,0.7-0.7V18c0-0.4-0.3-0.7-0.7-0.7h-1.3v-1.1H21
			c0.2,0,0.3-0.1,0.3-0.3S21.2,15.5,21,15.5z M8.6,17.3H8v-2.2c0-0.2-0.1-0.3-0.3-0.3H5.8v-0.6h2.8V17.3z M9.3,17.3v-3.5
			c0-0.2-0.1-0.3-0.3-0.3H5.8v-1.5c0-0.2-0.1-0.3-0.3-0.3s-0.3,0.1-0.3,0.3v1.9v1H3.3V9.4C3.3,9.2,3.4,9,3.6,9h5.1
			C8.8,9,9,9.1,9,9.2l3.2,8.1H9.3z"/>
	</g>
	<g display="inline">
		<circle fill="#1F89DE" cx="13.1" cy="21.3" r="1.4"/>
	</g>
	<g display="inline">
		<circle fill="#1F89DE" cx="4.8" cy="21.3" r="1.4"/>
	</g>
	<g display="inline">
		<path fill="#1F89DE" d="M19.3,2.2c0.1,0,0.2,0,0.2,0.1l0.6,0.6V1.3h-1.7v1.6l0.6-0.6C19.1,2.3,19.2,2.2,19.3,2.2z"/>
	</g>
	<g display="inline">
		<path fill="#1F89DE" d="M22.3,1.3h-1.4v2.4c0,0.1-0.1,0.3-0.2,0.3c-0.1,0.1-0.3,0-0.4-0.1l-1-0.9l-1,0.9c-0.1,0.1-0.2,0.1-0.4,0.1
			c-0.1-0.1-0.2-0.2-0.2-0.3V1.3h-1.4c-0.4,0-0.7,0.3-0.7,0.7v5.2c0,0.4,0.3,0.7,0.7,0.7h6c0.4,0,0.7-0.3,0.7-0.7V2
			C23,1.6,22.7,1.3,22.3,1.3z"/>
	</g>
	<g display="inline">
		<path fill="#1F89DE" d="M19.5,9.8l0.7,0.4V8.4h-1.7v1.8l0.7-0.4c0.1,0,0.1,0,0.2,0C19.4,9.8,19.4,9.8,19.5,9.8z"/>
	</g>
	<g display="inline">
		<path fill="#1F89DE" d="M22.3,8.4h-1.4v2.4c0,0.1-0.1,0.2-0.2,0.3s-0.2,0.1-0.3,0l-1-0.6l-1,0.6c-0.1,0.1-0.2,0.1-0.3,0
			c-0.1-0.1-0.2-0.2-0.2-0.3V8.4h-1.4c-0.4,0-0.7,0.3-0.7,0.7v5.2c0,0.4,0.3,0.7,0.7,0.7h6c0.4,0,0.7-0.3,0.7-0.7V9.1
			C23,8.7,22.7,8.4,22.3,8.4z"/>
	</g>
</g>
<g transform="translate(0,-16.50054)">
	<path fill="#1F89DE" d="M19.2,31.7c-1,0-1.9,0.8-1.9,1.9c0,1,0.8,1.9,1.9,1.9c1,0,1.9-0.8,1.9-1.9C21,32.6,20.2,31.7,19.2,31.7z
		 M19.2,34.1c-0.3,0-0.5-0.2-0.5-0.5s0.2-0.6,0.5-0.6c0.3,0,0.6,0.2,0.6,0.6S19.5,34.1,19.2,34.1z"/>
	<path fill="#1F89DE" d="M19,24h-3.2c-0.2,0-0.4,0.2-0.4,0.4V33c0,0.2,0.2,0.4,0.4,0.4h0.5c0.2,0,0.4-0.2,0.4-0.4
		c0.2-1.3,1.2-2.1,2.5-2.1c1.3,0,2.3,0.8,2.5,2.1c0,0.2,0.2,0.4,0.4,0.4h0.5c0.2,0,0.4-0.2,0.4-0.4v-4.3c0-0.1,0-0.2-0.1-0.3
		l-3.6-4.3C19.2,24,19.1,24,19,24z M16.2,27.5v-2.2c0-0.2,0.2-0.4,0.4-0.4h1.9c0.1,0,0.3,0.1,0.3,0.2l1.8,2.2c0.2,0.3,0,0.7-0.3,0.7
		h-3.8C16.4,27.9,16.2,27.7,16.2,27.5z"/>
	<path fill="#1F89DE" d="M1.4,33.4h1.1C2.8,33.4,3,33.3,3,33c0.2-1.3,1.2-2.1,2.5-2.1S7.8,31.7,8,33c0,0.2,0.2,0.4,0.4,0.4H14
		c0.2,0,0.4-0.2,0.4-0.4V22c0-0.2-0.2-0.4-0.4-0.4H1.4C1.2,21.5,1,21.7,1,22v11C1,33.2,1.2,33.4,1.4,33.4z"/>
	<path fill="#1F89DE" d="M5.5,31.7c-1,0-1.9,0.8-1.9,1.9c0,1,0.8,1.9,1.9,1.9c1,0,1.9-0.8,1.9-1.9C7.4,32.6,6.5,31.7,5.5,31.7z
		 M5.5,34.1c-0.3,0-0.6-0.2-0.6-0.5S5.2,33,5.5,33s0.6,0.2,0.6,0.6S5.8,34.1,5.5,34.1z"/>
</g>
</svg>
