<?xml version="1.0" encoding="utf-8"?>
<!-- Generator: Adobe Illustrator 23.1.0, SVG Export Plug-In . SVG Version: 6.00 Build 0)  -->
<svg version="1.1" id="ic_history" xmlns="http://www.w3.org/2000/svg" xmlns:xlink="http://www.w3.org/1999/xlink" x="0px" y="0px"
	 viewBox="0 0 24 24" style="enable-background:new 0 0 24 24;" xml:space="preserve">
<style type="text/css">
	.st0{fill:#3A4455;}
</style>
<g>
	<path class="st0" d="M21.4,5.1c-0.1-0.3-0.3-0.5-0.5-0.5l-4.7-1.4c-0.3-0.1-0.6,0-0.8,0.2l-10,10c-0.2,0.2-0.2,0.4-0.2,0.6
		s0.1,0.4,0.2,0.6l6.3,6.3c0.2,0.2,0.4,0.2,0.6,0.2c0.2,0,0.4-0.1,0.6-0.2l10-10c0.2-0.2,0.3-0.5,0.2-0.8L21.4,5.1z M17.7,9.8
		c-0.8,0-1.4-0.7-1.4-1.4S17,7,17.7,7c0.8,0,1.4,0.7,1.4,1.4S18.5,9.8,17.7,9.8z"/>
	<path class="st0" d="M4.2,13.9c0-0.5,0.2-0.9,0.5-1.2L14,3.3c-0.1,0-0.3,0-0.4,0.1L1.4,10.5C1.2,10.6,1.1,10.8,1,11s0,0.4,0.1,0.6
		l4.5,7.7c0.1,0.2,0.3,0.3,0.5,0.4c0.1,0,0.1,0,0.2,0s0.3,0,0.4-0.1l1.5-0.9l-3.6-3.6C4.3,14.8,4.2,14.3,4.2,13.9z"/>
</g>
</svg>
