<?xml version="1.0" encoding="utf-8"?>
<!-- Generator: Adobe Illustrator 22.0.1, SVG Export Plug-In . SVG Version: 6.00 Build 0)  -->
<svg version="1.1" id="ic_history" xmlns="http://www.w3.org/2000/svg" xmlns:xlink="http://www.w3.org/1999/xlink" x="0px" y="0px"
	 viewBox="0 0 24 24" style="enable-background:new 0 0 24 24;" xml:space="preserve">
<style type="text/css">
	.st0{fill:#8EAADB;}
	.st1{fill:#CC3399;}
</style>
<path class="st0" d="M23.1,9.1l-1.7-5c-0.1-0.3-0.3-0.5-0.5-0.5l-4.7-1.4c-0.3-0.1-0.6,0-0.8,0.2l-10,10c-0.2,0.2-0.2,0.4-0.2,0.6
	c0,0.2,0.1,0.4,0.2,0.6l6.3,6.3c0.2,0.2,0.4,0.2,0.6,0.2c0.1,0,0.3,0,0.4-0.1c-0.4-0.8-0.6-1.6-0.6-2.5c0-3.1,2.5-5.5,5.5-5.5
	c0.9,0,1.8,0.2,2.6,0.6l2.7-2.7C23.1,9.7,23.2,9.4,23.1,9.1z M17.7,8.8c-0.8,0-1.4-0.7-1.4-1.4S17,6,17.7,6c0.8,0,1.4,0.7,1.4,1.4
	S18.5,8.8,17.7,8.8z"/>
<path class="st1" d="M4.2,12.9c0-0.5,0.2-0.9,0.5-1.2L14,2.3c-0.1,0-0.3,0-0.4,0.1L1.4,9.5C1.2,9.6,1.1,9.8,1,10s0,0.4,0.1,0.6
	l4.5,7.7c0.1,0.2,0.3,0.3,0.5,0.4c0.1,0,0.1,0,0.2,0s0.3,0,0.4-0.1l1.5-0.9l-3.6-3.6C4.3,13.8,4.2,13.3,4.2,12.9z"/>
<path class="st1" d="M17.6,13.1c-2.4,0-4.4,2-4.4,4.4s2,4.4,4.4,4.4s4.4-2,4.4-4.4S20,13.1,17.6,13.1z M16.6,19.6l-1.9-1.9l0.5-0.5
	l1.4,1.4l3.3-3.3l0.5,0.5L16.6,19.6z"/>
</svg>
