<?xml version="1.0" encoding="utf-8"?>
<!-- Generator: Adobe Illustrator 22.0.1, SVG Export Plug-In . SVG Version: 6.00 Build 0)  -->
<svg version="1.1" id="Layer_1" xmlns="http://www.w3.org/2000/svg" xmlns:xlink="http://www.w3.org/1999/xlink" x="0px" y="0px"
	 viewBox="0 0 24 24" style="enable-background:new 0 0 24 24;" xml:space="preserve">
<style type="text/css">
	.st0{fill:#CC3399;}
</style>
<g id="noun_aim_453879" transform="translate(1208.894 501.772)">
	<circle id="Ellipse_19" class="st0" cx="-1196.9" cy="-489.8" r="4.5"/>
	<path id="Path_841" class="st0" d="M-1186.6-490.4h-1.2c-0.3-4.5-3.9-8.1-8.5-8.5v-1.2c0-0.4-0.3-0.7-0.7-0.7s-0.7,0.3-0.7,0.7v1.2
		c-4.5,0.3-8.1,3.9-8.5,8.5h-1.2c-0.4,0-0.7,0.3-0.6,0.7c0,0.3,0.3,0.6,0.6,0.6h1.2c0.3,4.5,3.9,8.1,8.5,8.5v1.2
		c0,0.4,0.3,0.7,0.7,0.7c0.4,0,0.7-0.3,0.7-0.7v-1.2c4.5-0.3,8.1-3.9,8.5-8.5h1.2c0.4,0,0.7-0.3,0.7-0.6
		C-1185.9-490.1-1186.2-490.4-1186.6-490.4L-1186.6-490.4z M-1196.3-482v-1.1c0-0.4-0.3-0.7-0.7-0.7s-0.7,0.3-0.7,0.7v1.1
		c-3.8-0.3-6.8-3.3-7.1-7.1h1.1c0.4,0,0.7-0.3,0.6-0.7c0-0.3-0.3-0.6-0.6-0.6h-1.1c0.3-3.8,3.3-6.8,7.1-7.1v1.1
		c0,0.4,0.3,0.7,0.7,0.7c0.4,0,0.7-0.3,0.7-0.7v-1.1c3.8,0.3,6.8,3.3,7.1,7.1h-1.1c-0.4,0-0.7,0.3-0.6,0.7c0,0.3,0.3,0.6,0.6,0.6
		h1.1C-1189.4-485.3-1192.5-482.3-1196.3-482z"/>
</g>
</svg>
