<?xml version="1.0" encoding="utf-8"?>
<!-- Generator: Adobe Illustrator 22.0.1, SVG Export Plug-In . SVG Version: 6.00 Build 0)  -->
<svg version="1.1" id="Layer_1" xmlns="http://www.w3.org/2000/svg" xmlns:xlink="http://www.w3.org/1999/xlink" x="0px" y="0px"
	 viewBox="0 0 24 24" style="enable-background:new 0 0 24 24;" xml:space="preserve">
<style type="text/css">
	.st0{fill:#FBC02D;}
</style>
<g id="noun_timer_2805469" transform="translate(1209.539 497.917)">
	<path id="Path_830" class="st0" d="M-1206.9-484.2c0,5.1,4.2,9.3,9.3,9.3s9.3-4.2,9.3-9.3c0-2.7-1.2-5.4-3.3-7.1l0.7-1l0.2,0.2
		c0.2,0.1,0.5,0.1,0.6-0.1l0,0l0.4-0.6c0.1-0.2,0.1-0.5-0.1-0.6l0,0l-1.5-1.1c-0.2-0.1-0.5-0.1-0.6,0.1l0,0l-0.4,0.6
		c-0.1,0.2-0.1,0.5,0.1,0.6l0,0l0.2,0.2l-0.7,1c-1.2-0.8-2.7-1.3-4.1-1.4v-1.2l1.6-0.4c0.1,0,0.2-0.1,0.2-0.3v-1.3
		c0-0.2-0.1-0.3-0.3-0.3h-4.7c-0.2,0-0.3,0.1-0.3,0.3l0,0v1.3c0,0.1,0.1,0.2,0.2,0.3l1.6,0.4v1.1c-1.5,0.1-2.9,0.6-4.1,1.4l-0.7-1
		l0.2-0.2c0.2-0.1,0.2-0.4,0.1-0.6l0,0l-0.4-0.6c-0.1-0.2-0.4-0.2-0.6-0.1l0,0l-1.5,1.1c-0.2,0.1-0.2,0.4-0.1,0.6l0,0l0.4,0.6
		c0.1,0.2,0.4,0.2,0.6,0.1l0,0l0.2-0.2l0.7,1C-1205.6-489.6-1206.9-487-1206.9-484.2z M-1189.6-484.2c0,4.4-3.6,8-8,8s-8-3.6-8-8
		s3.6-8,8-8l0,0C-1193.1-492.2-1189.6-488.6-1189.6-484.2z M-1190.4-484.2c0,3.9-3.1,7.1-7,7.2c-3.9,0-7.1-3.1-7.2-7
		c0-0.1,0-0.1,0-0.2h7.1v-7.1C-1193.6-491.3-1190.4-488.2-1190.4-484.2L-1190.4-484.2z"/>
</g>
</svg>
