<?xml version="1.0" encoding="utf-8"?>
<!-- Generator: Adobe Illustrator 22.0.1, SVG Export Plug-In . SVG Version: 6.00 Build 0)  -->
<svg version="1.1" id="Layer_1" xmlns="http://www.w3.org/2000/svg" xmlns:xlink="http://www.w3.org/1999/xlink" x="0px" y="0px"
	 viewBox="0 0 24 24" style="enable-background:new 0 0 24 24;" xml:space="preserve">
<style type="text/css">
	.st0{fill:#CC3399;}
	.st1{fill:#8EAADB;}
</style>
<path class="st0" d="M18.3,2.1c-0.2-0.2-0.5-0.2-0.7-0.1s-0.4,0.3-0.4,0.6v3.3c0,0.4,0.3,0.7,0.7,0.7h3.3c0.3,0,0.5-0.2,0.6-0.4
	c0.1-0.2,0-0.5-0.1-0.7L18.3,2.1z"/>
<path class="st1" d="M22,7.9h-4.9c-0.7,0-1.3-0.6-1.3-1.3V1.7c0-0.4-0.3-0.7-0.7-0.7H8.9c-1.1,0-2,0.9-2,2v18c0,1.1,0.9,2,2,2h11.7
	c1.1,0,2-0.9,2-2V8.5C22.7,8.2,22.4,7.9,22,7.9z M12.3,13.1l2.1-2.1c0,0,0.1,0,0.1-0.1c0.2-0.1,0.4-0.1,0.6,0c0,0,0.1,0,0.1,0.1
	l2.1,2.1c0.2,0.2,0.2,0.5,0,0.7S17,14,16.8,14s-0.3-0.1-0.4-0.2l-1.2-1.2v3.9c0,0.3-0.2,0.5-0.5,0.5s-0.5-0.2-0.5-0.5v-3.9L13,13.9
	c-0.2,0.2-0.5,0.2-0.7,0S12.1,13.3,12.3,13.1z M17.9,19.2h-6.2c-0.3,0-0.5-0.2-0.5-0.5s0.2-0.5,0.5-0.5h6.2c0.3,0,0.5,0.2,0.5,0.5
	S18.2,19.2,17.9,19.2z"/>
<path class="st0" d="M5.5,21V3c0-0.8,0.3-1.5,0.7-2l0,0c-1.1,0-2,0.9-2,2v18c0,1.1,0.9,2,2,2l0,0C5.7,22.4,5.5,21.7,5.5,21z"/>
<path class="st0" d="M2.7,21V3c0-0.8,0.3-1.5,0.7-2l0,0c-1.1,0-2,0.9-2,2v18c0,1.1,0.9,2,2,2l0,0C3,22.4,2.7,21.7,2.7,21z"/>
</svg>
