<?xml version="1.0" encoding="utf-8"?>
<!-- Generator: Adobe Illustrator 22.0.1, SVG Export Plug-In . SVG Version: 6.00 Build 0)  -->
<svg version="1.1" id="Layer_1" xmlns="http://www.w3.org/2000/svg" xmlns:xlink="http://www.w3.org/1999/xlink" x="0px" y="0px"
	 viewBox="0 0 24 24" style="enable-background:new 0 0 24 24;" xml:space="preserve">
<style type="text/css">
	.st0{fill:#33DA3D;}
</style>
<g id="ic_working-models" transform="translate(-6 -18.5)">
	<path id="Path_839" class="st0" d="M28.1,37.5c0.1,0.3-0.1,0.5-0.3,0.6l-2.6,0.7c-0.3,0.1-0.5-0.1-0.6-0.4v-0.1l0.1-2.5
		c0-0.3,0.2-0.5,0.5-0.5h0.1c0.3,0,0.5,0.3,0.5,0.5L25.6,37c3.6-4.2,3.1-10.5-1.1-14.1S14,19.8,10.4,24s-3.1,10.5,1.1,14.1
		c1.8,1.5,4.1,2.4,6.5,2.4l0,0c0.3,0,0.5,0.3,0.5,0.5c0,0.3-0.2,0.5-0.5,0.5c-6.1,0-11-4.9-11-11s4.9-11,11-11s11,4.9,11,11
		c0,2.5-0.9,4.9-2.4,6.9l0.9-0.3l0,0C27.7,37.1,28,37.2,28.1,37.5L28.1,37.5z"/>
	<path id="Path_840" class="st0" d="M15.7,35.2c0.2,0.1,0.4,0.2,0.6,0.3c0.1,0,0.1,0.1,0.1,0.2l0.2,1.9c0,0.3,0.3,0.5,0.6,0.5h1.6
		c0.3,0,0.5-0.2,0.6-0.5l0.2-1.9c0-0.1,0.1-0.1,0.1-0.2c0.2-0.1,0.4-0.2,0.6-0.3c0.1,0,0.1,0,0.2,0l1.5,1.2c0.2,0.2,0.6,0.2,0.8,0
		l1.2-1.2c0.2-0.2,0.2-0.6,0-0.8L22.8,33c0-0.1-0.1-0.1,0-0.2c0.1-0.2,0.2-0.4,0.3-0.6c0-0.1,0.1-0.1,0.2-0.1l1.9-0.2
		c0.3,0,0.5-0.3,0.5-0.6v-1.6c0-0.3-0.2-0.5-0.5-0.6l-1.9-0.2c-0.1,0-0.1-0.1-0.2-0.1c-0.1-0.2-0.2-0.4-0.3-0.6c0-0.1,0-0.1,0-0.2
		l1.2-1.5c0.2-0.2,0.2-0.6,0-0.8l-1.2-1.2c-0.2-0.2-0.6-0.2-0.8,0l-1.5,1.2c-0.1,0-0.1,0.1-0.2,0c-0.2-0.1-0.4-0.2-0.6-0.3
		c-0.1,0-0.1-0.1-0.1-0.2l-0.2-1.9c0-0.3-0.3-0.5-0.6-0.5h-1.6c-0.3,0-0.5,0.2-0.6,0.5l-0.2,1.9c0,0.1-0.1,0.1-0.1,0.2
		c-0.2,0.1-0.4,0.2-0.6,0.3c-0.1,0-0.1,0-0.2,0L14,24.6c-0.2-0.2-0.6-0.2-0.8,0L12,25.8c-0.2,0.2-0.2,0.6,0,0.8l1.2,1.5
		c0,0.1,0.1,0.1,0,0.2c-0.1,0.2-0.2,0.4-0.3,0.6c0,0.1-0.1,0.1-0.2,0.1L11,29.2c-0.3,0-0.5,0.3-0.5,0.6v1.6c0,0.3,0.2,0.5,0.5,0.6
		l1.9,0.2c0.1,0,0.1,0.1,0.2,0.1c0.1,0.2,0.2,0.4,0.3,0.6c0,0.1,0,0.1,0,0.2L12,34.5c-0.2,0.2-0.2,0.6,0,0.8l1.2,1.2
		c0.2,0.2,0.6,0.2,0.8,0l1.5-1.2C15.6,35.2,15.6,35.2,15.7,35.2z M18,27.7c1.5,0,2.8,1.3,2.8,2.8s-1.3,2.8-2.8,2.8s-2.8-1.3-2.8-2.8
		S16.5,27.7,18,27.7L18,27.7z"/>
</g>
</svg>
