<?xml version="1.0" encoding="utf-8"?>
<!-- Generator: Adobe Illustrator 23.1.0, SVG Export Plug-In . SVG Version: 6.00 Build 0)  -->
<svg version="1.1" id="Layer_1" xmlns="http://www.w3.org/2000/svg" xmlns:xlink="http://www.w3.org/1999/xlink" x="0px" y="0px"
	 viewBox="0 0 24 24" enable-background="new 0 0 24 24" xml:space="preserve">
<path fill="#FFFFFF" d="M21.2,12.2l-2.1-3.2C19,8.9,19,8.7,18.9,8.4C18.6,4.3,15.1,1,10.8,1C6.3,1,2.7,4.7,2.7,9.2
	c0,2.7,1.3,5.3,3.3,7c0.2,0.2,0.4,0.5,0.4,0.8v4.7c0,0.4,0.3,0.7,0.6,0.7l7,0.6c0.4,0,0.8-0.3,0.8-0.7v-3.3c0-0.2,0.2-0.4,0.4-0.4
	h2.5c0.8,0,1.4-0.6,1.4-1.4v-3.3c0-0.1,0.1-0.3,0.3-0.3h1.2C21.2,13.7,21.6,12.8,21.2,12.2z M9.4,11.9H8v1l0,0
	c0.3,0.2,0.5,0.5,0.5,0.8c0,0.5-0.4,0.9-0.9,0.9c-0.5,0-0.9-0.4-0.9-0.9c0-0.3,0.2-0.6,0.5-0.8l0,0v-1.7h1.4V9.9H6.5h0
	c-0.2,0.3-0.5,0.5-0.8,0.5c-0.5,0-0.9-0.4-0.9-0.9c0-0.5,0.4-0.9,0.9-0.9c0.3,0,0.6,0.2,0.8,0.5l0,0h2.1V7.8H7.3V6.1l0,0
	C6.9,5.9,6.7,5.6,6.7,5.3c0-0.5,0.4-0.9,0.9-0.9c0.5,0,0.9,0.4,0.9,0.9c0,0.3-0.2,0.6-0.5,0.8l0,0v1h1.4L9.4,11.9L9.4,11.9z
	 M11.4,13.5c0.3,0.2,0.5,0.5,0.5,0.8c0,0.5-0.4,0.9-0.9,0.9c-0.5,0-0.9-0.4-0.9-0.9c0-0.3,0.2-0.6,0.5-0.8l0,0v-8l0,0
	c-0.3-0.2-0.5-0.5-0.5-0.8c0-0.5,0.4-0.9,0.9-0.9c0.5,0,0.9,0.4,0.9,0.9c0,0.3-0.2,0.6-0.5,0.8l0,0L11.4,13.5L11.4,13.5z M16.2,10.4
	c-0.3,0-0.6-0.2-0.8-0.5l0,0h-2.1v1.3h1.4v1.7l0,0c0.3,0.2,0.5,0.5,0.5,0.8c0,0.5-0.4,0.9-0.9,0.9c-0.5,0-0.9-0.4-0.9-0.9
	c0-0.3,0.2-0.6,0.5-0.8l0,0v-1h-1.4V7.1h1.4v-1l0,0c-0.3-0.2-0.5-0.5-0.5-0.8c0-0.5,0.4-0.9,0.9-0.9c0.5,0,0.9,0.4,0.9,0.9
	c0,0.3-0.2,0.6-0.5,0.8l0,0v1.7h-1.4v1.3h2.1l0,0c0.2-0.3,0.5-0.5,0.8-0.5c0.5,0,0.9,0.4,0.9,0.9C17.1,10,16.7,10.4,16.2,10.4z"/>
</svg>
