<svg xmlns="http://www.w3.org/2000/svg" width="32" height="21.1" viewBox="0 0 32 21.1">
  <path id="Path_141" data-name="Path 141" d="M19.3,11.9a2.24,2.24,0,0,0-1.9,1.2H5.6a3.7,3.7,0,0,1,0-7.4H7.3a5.274,5.274,0,0,1,.3-1.2c.1-.1.1-.3.2-.4A4.76,4.76,0,0,1,12,1.6a4.875,4.875,0,0,1,3.9,2,7.5,7.5,0,0,1,1.6-.5A6.22,6.22,0,0,0,12,0,6.537,6.537,0,0,0,6,4.1H5.6A5.357,5.357,0,0,0,.3,9.5a5.271,5.271,0,0,0,5.3,5.3H17.5a2.041,2.041,0,0,0,3.9-.9A1.97,1.97,0,0,0,19.3,11.9Zm6.6-4.1a7.368,7.368,0,0,0-6.5-4.1,7.286,7.286,0,0,0-7.1,5.8,5.81,5.81,0,0,0-4.1,2.4h8.7a3.034,3.034,0,0,1,2.5-1.2A3.244,3.244,0,0,1,22.6,14a3.2,3.2,0,0,1-5.7,2.1H7.2a5.786,5.786,0,0,0,5.6,5h13a6.509,6.509,0,0,0,6.5-6.6,6.643,6.643,0,0,0-6.4-6.7Z" transform="translate(-0.296)" fill="#fff"/>
</svg>
