<svg xmlns="http://www.w3.org/2000/svg" width="36" height="21.529" viewBox="0 0 36 21.529">
  <g id="Group_38" data-name="Group 38" transform="translate(0.137 -0.174)">
    <path id="Path_138" data-name="Path 138" d="M61.73,7.994a3.565,3.565,0,0,0,.132,1.066,6.981,6.981,0,0,0,.383.862.569.569,0,0,1,.084.275.458.458,0,0,1-.227.359l-.754.5a.609.609,0,0,1-.311.108A.592.592,0,0,1,60.676,11a3.335,3.335,0,0,1-.431-.563c-.12-.2-.239-.431-.371-.706a4.423,4.423,0,0,1-3.52,1.652,3.281,3.281,0,0,1-2.395-.862,3.076,3.076,0,0,1-.886-2.3,3.082,3.082,0,0,1,1.09-2.466A4.356,4.356,0,0,1,57.1,4.821a9.057,9.057,0,0,1,1.269.1c.443.06.9.156,1.377.263V4.306a2.653,2.653,0,0,0-.563-1.916,2.736,2.736,0,0,0-1.952-.551A5.236,5.236,0,0,0,55.935,2a9.542,9.542,0,0,0-1.293.407,4.33,4.33,0,0,1-.419.156.542.542,0,0,1-.192.036c-.168,0-.251-.12-.251-.371V1.636a.85.85,0,0,1,.084-.419A.989.989,0,0,1,54.2.966,6.661,6.661,0,0,1,55.707.427,7.6,7.6,0,0,1,57.575.2a4.375,4.375,0,0,1,3.137.97,3.914,3.914,0,0,1,.994,2.945V7.994Zm-4.861,1.82A3.614,3.614,0,0,0,58.1,9.6a2.741,2.741,0,0,0,1.137-.766,1.826,1.826,0,0,0,.407-.766,4.346,4.346,0,0,0,.12-1.042v-.5a11.16,11.16,0,0,0-1.1-.2,8.879,8.879,0,0,0-1.125-.072,2.76,2.76,0,0,0-1.784.479A1.669,1.669,0,0,0,55.168,8.1a1.671,1.671,0,0,0,.443,1.269,1.727,1.727,0,0,0,1.257.443Zm9.614,1.293a.69.69,0,0,1-.455-.12.99.99,0,0,1-.251-.467L62.963,1.265a1.637,1.637,0,0,1-.108-.479.277.277,0,0,1,.228-.3h1.245a.664.664,0,0,1,.467.12,1.183,1.183,0,0,1,.239.467l2,7.926L68.9,1.073a.84.84,0,0,1,.227-.467.841.841,0,0,1,.479-.12h.958a.721.721,0,0,1,.479.12.86.86,0,0,1,.227.467L73.164,9.1l2.071-8.022a.97.97,0,0,1,.239-.467.8.8,0,0,1,.467-.12h1.114a.267.267,0,0,1,.3.227V.786a1.049,1.049,0,0,1-.024.192,2.182,2.182,0,0,1-.084.3l-2.886,9.255A.918.918,0,0,1,74.11,11a.766.766,0,0,1-.455.12h-1.03a.721.721,0,0,1-.479-.12.9.9,0,0,1-.227-.479L70.063,2.8l-1.844,7.711a.9.9,0,0,1-.227.479.757.757,0,0,1-.479.12Zm15.386.323a7.924,7.924,0,0,1-1.844-.216,5.447,5.447,0,0,1-1.377-.479.841.841,0,0,1-.371-.335.8.8,0,0,1-.072-.335V9.455c0-.251.1-.371.275-.371a.678.678,0,0,1,.216.036c.072.024.18.072.3.12a6.252,6.252,0,0,0,1.317.419,7.1,7.1,0,0,0,1.425.144,3.231,3.231,0,0,0,1.748-.4,1.289,1.289,0,0,0,.623-1.137,1.155,1.155,0,0,0-.323-.838,3,3,0,0,0-1.209-.623L80.839,6.27a3.652,3.652,0,0,1-1.916-1.221,2.851,2.851,0,0,1-.6-1.736,2.573,2.573,0,0,1,.323-1.329A3.078,3.078,0,0,1,79.51,1,3.689,3.689,0,0,1,80.755.379a4.935,4.935,0,0,1,1.509-.2,6.011,6.011,0,0,1,.8.048c.275.036.527.084.778.132a5.115,5.115,0,0,1,.682.192,3.178,3.178,0,0,1,.5.216.965.965,0,0,1,.359.3.585.585,0,0,1,.108.4v.563c0,.251-.1.383-.275.383a1.548,1.548,0,0,1-.455-.144,5.415,5.415,0,0,0-2.3-.467,3.09,3.09,0,0,0-1.592.335,1.156,1.156,0,0,0-.563,1.066,1.089,1.089,0,0,0,.359.85,3.576,3.576,0,0,0,1.317.659l1.7.539a3.642,3.642,0,0,1,1.856,1.149A2.661,2.661,0,0,1,86.1,8.066a2.949,2.949,0,0,1-.311,1.389,3.375,3.375,0,0,1-.874,1.054,3.766,3.766,0,0,1-1.329.67,5.867,5.867,0,0,1-1.712.251Z" transform="translate(-51.722 0)" fill="#fff"/>
    <path id="Path_139" data-name="Path 139" d="M32.41,508.395a25.825,25.825,0,0,1-14.583,4.454,26.383,26.383,0,0,1-17.8-6.789c-.371-.335-.036-.79.407-.527a35.906,35.906,0,0,0,17.816,4.729,35.536,35.536,0,0,0,13.59-2.778c.659-.3,1.221.431.575.91Z" transform="translate(0 -491.146)" fill="#fff"/>
    <path id="Path_140" data-name="Path 140" d="M1050.5,481.77c-.5-.647-3.329-.311-4.61-.156-.383.048-.443-.287-.1-.539,2.251-1.58,5.951-1.125,6.382-.6s-.12,4.239-2.227,6.011c-.323.275-.635.132-.491-.227C1049.941,485.074,1051.006,482.4,1050.5,481.77Z" transform="translate(-1016.453 -466.389)" fill="#fff"/>
  </g>
</svg>
