<?xml version="1.0" encoding="utf-8"?>
<!-- Generator: Adobe Illustrator 23.1.0, SVG Export Plug-In . SVG Version: 6.00 Build 0)  -->
<svg version="1.1" id="Layer_1" xmlns="http://www.w3.org/2000/svg" xmlns:xlink="http://www.w3.org/1999/xlink" x="0px" y="0px"
	 viewBox="0 0 24 24" style="enable-background:new 0 0 24 24;" xml:space="preserve">
<style type="text/css">
	.st0{fill:#FFFFFF;}
</style>
<g>
	<path class="st0" d="M2.7,21.8c-0.1,0-0.2,0-0.2-0.1c-0.1-0.1-0.1-0.3,0-0.5l4.7-4.9c0.1-0.1,0.4-0.1,0.5,0c0.1,0.1,0.1,0.3,0,0.5
		L3,21.7C2.9,21.8,2.8,21.8,2.7,21.8z"/>
	<path class="st0" d="M6,22c-0.1,0-0.2,0-0.2-0.1c-0.1-0.1-0.2-0.3,0-0.5L8.8,18c0.1-0.1,0.3-0.2,0.5,0c0.1,0.1,0.2,0.3,0,0.5
		l-3.1,3.4C6.2,22,6.1,22,6,22z"/>
	<path class="st0" d="M2.5,18.7c-0.1,0-0.2,0-0.2-0.1c-0.1-0.1-0.2-0.3,0-0.5l3.1-3.4c0.1-0.1,0.3-0.2,0.5,0c0.1,0.1,0.2,0.3,0,0.5
		l-3.1,3.4C2.7,18.7,2.6,18.7,2.5,18.7z"/>
	<path class="st0" d="M14,15c-0.6,0.3-1.2,0.5-1.8,0.8l0.2,2.8c0.9-0.4,3-1.7,4.6-5.1c-0.7,0.4-1.4,0.7-2,1
		C14.7,14.7,14.3,14.8,14,15z"/>
	<path class="st0" d="M15.6,6.9c-0.3,0-0.6,0.1-0.9,0.4c-0.2,0.2-0.4,0.5-0.4,0.9c0,0.3,0.1,0.6,0.4,0.9c0.5,0.5,1.3,0.5,1.7,0
		c0,0,0,0,0,0c0.2-0.2,0.4-0.5,0.4-0.9c0-0.3-0.1-0.6-0.4-0.9C16.3,7.1,15.9,6.9,15.6,6.9z"/>
	<path class="st0" d="M9.6,8c0.2-0.4,0.4-0.8,0.6-1.2c-3.4,1.6-4.7,3.7-5.1,4.5l2.8,0.2c0.3-0.7,0.6-1.5,1-2.2
		C9.1,8.9,9.4,8.4,9.6,8z"/>
	<path class="st0" d="M16.9,2.4l4.5,4.5c0.2-0.9,0.3-1.7,0.4-2.6c0-0.1,0-0.1,0-0.2c0-0.1,0-0.2,0-0.3c0-0.1,0-0.2,0-0.4
		c0-0.1,0-0.2,0-0.2c0-0.2,0-0.3,0-0.5c0,0,0-0.1,0-0.1c0-0.2,0-0.4,0-0.6C20.5,2,18.7,2,16.9,2.4z"/>
	<path class="st0" d="M19.4,10.9c0.1-0.1,0.2-0.2,0.3-0.3c0,0,0,0,0,0c0.1-0.1,0.2-0.2,0.3-0.3c0,0,0.1-0.1,0.1-0.1
		c0.1-0.1,0.1-0.2,0.2-0.3c0-0.1,0.1-0.1,0.1-0.2c0-0.1,0.1-0.2,0.1-0.2c0-0.1,0.1-0.1,0.1-0.2c0-0.1,0.1-0.1,0.1-0.2
		c0.1-0.1,0.1-0.3,0.2-0.4c0,0,0,0,0-0.1c0.1-0.3,0.2-0.5,0.3-0.8l-5-5c-1.3,0.4-2.4,1-3.3,1.8c0,0,0,0-0.1,0.1
		c-0.1,0.1-0.2,0.2-0.3,0.3c0,0-0.1,0.1-0.1,0.1c-0.8,0.9-1.5,2.1-2.2,3.3C10.1,8.6,10,8.8,9.8,9.1c-0.5,1-0.9,2-1.3,3
		c0,0.1-0.1,0.1-0.1,0.2c-0.3,0.7-0.5,1.4-0.7,2L9.5,16c0.7-0.2,1.4-0.5,2.1-0.7c0,0,0.1-0.1,0.1-0.1c0.7-0.2,1.3-0.5,2-0.8
		c0.1-0.1,0.3-0.1,0.4-0.2c1.7-0.8,3.6-1.7,4.9-2.9C19.1,11.2,19.2,11.1,19.4,10.9C19.3,10.9,19.3,10.9,19.4,10.9z M17,9.5
		c-0.4,0.4-0.9,0.6-1.4,0.6c-0.5,0-1-0.2-1.4-0.6c-0.4-0.4-0.6-0.8-0.6-1.3c0-0.5,0.2-1,0.6-1.3c0.8-0.7,2-0.7,2.7,0
		c0.4,0.4,0.6,0.8,0.6,1.3C17.5,8.7,17.3,9.1,17,9.5z"/>
</g>
</svg>
