<?xml version="1.0" encoding="utf-8"?>
<!-- Generator: Adobe Illustrator 23.1.0, SVG Export Plug-In . SVG Version: 6.00 Build 0)  -->
<svg version="1.1" id="Layer_1" xmlns="http://www.w3.org/2000/svg" xmlns:xlink="http://www.w3.org/1999/xlink" x="0px" y="0px"
	 viewBox="0 0 24 24" enable-background="new 0 0 24 24" xml:space="preserve">
<g>
	<path fill="#FFFFFF" d="M15.5,21.2c-1,1.6-2.9,2.2-4.6,1.4c-1.3-0.6-2.6-1.2-3.9-1.8c-1.9-0.9-2.6-3-1.7-4.9
		c0.3-0.6,0.5-1.2,0.8-1.7c0.1-0.1,0.1-0.2,0-0.4c-0.3-0.5-0.6-1-0.9-1.5c-0.6-1-1.2-2-1.8-3C3.1,8.5,3.2,7.7,3.8,7.2
		c0.7-0.6,1.8-0.4,2.3,0.4c0.4,0.6,0.7,1.2,1.1,1.8C7.4,9.6,7.6,9.8,7.8,10c0.4,0.4,1,0.5,1.5,0.2c0.4-0.2,0.8-0.4,1.1-0.7
		c1.2-1.1,2.3-2.2,3.5-3.3c0.8-0.8,1.6-1.5,2.4-2.2c0.5-0.5,1.3-0.5,1.8,0.1c0.5,0.5,0.5,1.3,0,1.8c-0.2,0.2-0.4,0.4-0.7,0.6
		c-1.7,1.6-3.4,3.2-5,4.8c-0.6,0.6-1.3,1.2-1.9,1.8c-1,1-0.6,2.6,0.7,3.1c0.3,0.1,0.6,0.1,1,0.1c-0.1,0.6,0,1.2,0.5,1.7
		c0.5,0.5,1.1,0.6,1.7,0.6c-0.2,1.1,0.2,1.7,1.3,2.3C15.6,21,15.6,21.1,15.5,21.2z"/>
	<path fill="#FFFFFF" d="M19,12.7c0.2,0.5,0.1,1.1-0.3,1.5c-0.2,0.2-0.3,0.3-0.5,0.4c-1.1,1.1-2.2,2.1-3.4,3.2
		c-0.5,0.5-1.4,0.5-1.9-0.1c-0.5-0.5-0.5-1.3,0-1.8c1.3-1.2,2.6-2.4,3.9-3.6c0.2-0.2,0.5-0.3,0.8-0.3C18.4,11.9,18.8,12.2,19,12.7z"
		/>
	<path fill="#FFFFFF" d="M11.1,13.4c0.7-0.7,1.5-1.4,2.2-2.1c0.5-0.5,1-0.9,1.4-1.4c0.8-0.7,2-0.4,2.2,0.7c0.1,0.5,0,0.9-0.4,1.3
		c-0.7,0.7-1.4,1.3-2.1,2c-0.6,0.6-1.2,1.1-1.8,1.7c-0.4,0.4-0.9,0.4-1.4,0.2c-0.5-0.2-0.7-0.6-0.8-1C10.5,14,10.7,13.7,11.1,13.4z"
		/>
	<path fill="#FFFFFF" d="M20.7,15.8c0.1,0.6-0.1,1-0.5,1.4c-1,1-2,1.9-3.1,2.9c-0.6,0.5-1.4,0.5-1.9,0c-0.5-0.5-0.5-1.4,0.1-1.9
		c0.2-0.2,0.4-0.3,0.5-0.5c0.9-0.8,1.7-1.6,2.6-2.5c0.3-0.3,0.6-0.4,0.9-0.4C20.1,14.7,20.6,15.1,20.7,15.8z"/>
	<path fill="#FFFFFF" d="M7.1,5.4c-0.5-0.4-1-0.7-1.5-1.1C5.3,4.2,5.3,3.9,5.5,3.6C5.6,3.4,6,3.3,6.2,3.5c0.5,0.3,0.9,0.7,1.4,1
		c0.1,0.1,0.1,0.1,0.2,0.2C8,4.9,8,5.1,7.9,5.3C7.8,5.5,7.7,5.6,7.4,5.6C7.3,5.6,7.2,5.5,7.1,5.4z"/>
	<path fill="#FFFFFF" d="M11.9,3.7c0.4-0.5,0.8-1.1,1.2-1.6c0.2-0.2,0.5-0.3,0.7-0.1c0.2,0.2,0.3,0.5,0.2,0.7
		c-0.4,0.6-0.8,1.1-1.2,1.7c-0.1,0.2-0.4,0.2-0.6,0.1c-0.2-0.1-0.3-0.3-0.3-0.5C11.8,3.9,11.8,3.8,11.9,3.7z"/>
	<path fill="#FFFFFF" d="M8.4,4.1C8.1,3.5,7.8,2.9,7.5,2.2c-0.1-0.3,0-0.6,0.3-0.7c0.3-0.1,0.5,0,0.7,0.3C8.7,2.2,8.8,2.6,9,3
		c0.1,0.2,0.2,0.4,0.3,0.6C9.4,4,9.2,4.4,8.8,4.4C8.6,4.4,8.4,4.3,8.4,4.1z"/>
	<path fill="#FFFFFF" d="M10.1,2.8c0.1-0.4,0.1-0.9,0.2-1.3c0-0.2,0.2-0.4,0.4-0.4c0.2,0,0.4,0,0.5,0.2c0.1,0.1,0.1,0.3,0.1,0.4
		c-0.1,0.6-0.1,1.2-0.2,1.8c0,0.3-0.3,0.5-0.6,0.5c-0.3,0-0.5-0.3-0.5-0.6C10.1,3.2,10.1,3,10.1,2.8z"/>
</g>
</svg>
