<?xml version="1.0" encoding="utf-8"?>
<!-- Generator: Adobe Illustrator 23.1.0, SVG Export Plug-In . SVG Version: 6.00 Build 0)  -->
<svg version="1.1" id="Icon-fileupload" xmlns="http://www.w3.org/2000/svg" xmlns:xlink="http://www.w3.org/1999/xlink" x="0px"
	 y="0px" viewBox="0 0 84 84" style="enable-background:new 0 0 84 84;" xml:space="preserve">
<style type="text/css">
	.st0{fill:#F1F2F4;}
	.st1{fill:#A2A9B1;}
</style>
<circle id="Ellipse_3" class="st0" cx="42" cy="42" r="41"/>
<path id="ic_upload_file" class="st1" d="M55.2,43.9v9.5c0,1-0.8,1.9-1.9,1.9l0,0H30.7c-1,0-1.9-0.8-1.9-1.9v-9.5
	c0-1-0.8-1.9-1.9-1.9S25,42.9,25,43.9l0,0v11.3c0,2.1,1.7,3.8,3.8,3.8h26.5c2.1,0,3.8-1.7,3.8-3.8V43.9c0-1-0.8-1.9-1.9-1.9
	S55.2,42.9,55.2,43.9L55.2,43.9z M43.9,47.8c0,1-0.8,1.9-1.9,1.9c-1,0-1.9-0.8-1.9-1.9V31.5L36.5,35c-0.7,0.7-1.9,0.7-2.7,0
	c-0.7-0.7-0.7-1.9,0-2.7l6.8-6.8c0.7-0.7,1.9-0.7,2.7,0l6.8,6.8c0.7,0.8,0.7,2-0.1,2.7c-0.7,0.7-1.9,0.7-2.6,0l-3.6-3.5L43.9,47.8
	L43.9,47.8z"/>
</svg>
